<svg width="159" height="40" viewBox="0 0 159 40" fill="none" xmlns="http://www.w3.org/2000/svg">
<path d="M20.4996 0C9.17792 0 0 9.07923 0 20.2792C0 29.8462 6.69749 37.8647 15.7075 40C21.6481 37.5317 22.921 32.193 22.921 32.193C23.0202 35.1419 25.3138 37.9077 26.9661 39.5284C35.1192 36.8493 41 29.2441 41 20.2792C41 9.07923 31.8221 0 20.5004 0H20.4996ZM14.6139 12.7169C14.8392 12.5946 15.0833 12.5314 15.3315 12.5719C15.8189 12.6513 16.2883 12.7801 16.6225 12.225C16.7216 12.0605 16.9985 12.1213 17.1959 12.1926C17.6333 12.3506 17.8561 12.2331 17.9413 11.7485C18.1609 10.5063 18.9506 10.157 20.0638 10.7964C20.2571 10.9074 20.3898 10.9179 20.5356 10.7648C20.9632 10.315 21.5072 10.2599 22.0912 10.2794C22.5737 10.2956 22.5745 10.2705 22.5704 9.77046C22.5655 9.15297 22.9088 8.67 23.5215 8.57033C23.8492 8.51685 24.0179 8.38799 24.1924 8.11814C24.9755 6.90585 26.8063 6.98446 27.4838 8.25753C27.6443 8.55899 27.8147 8.69674 28.1514 8.67729C29.0959 8.62219 29.8544 8.87097 30.1133 9.89932C30.124 9.94145 30.1526 10.0168 30.1641 10.0152C31.0201 9.89931 31.2478 10.8296 31.913 11.0411C32.3406 11.1772 33.1426 12.5638 33.0615 13.0127C32.9476 13.6456 32.4807 13.9357 31.8942 14.0767C31.2995 14.2193 30.7531 13.6399 30.3066 13.7736C29.8348 13.9146 29.5129 14.5151 28.887 14.5613C28.3947 14.5969 27.8975 14.5734 27.5436 14.242C27.5387 14.2372 27.5329 14.2323 27.528 14.2274C26.9644 13.7072 26.0904 14.3514 26.4222 15.0402C27.0496 16.3416 28.1416 17.515 28.1735 19.8983C28.1981 21.7119 26.9382 23.3496 25.612 24.5684C25.6841 24.3682 25.7422 24.1494 25.7832 23.9201C25.8192 23.7183 25.8446 23.5092 25.8577 23.2961C25.8725 23.0838 25.8733 22.8674 25.8676 22.6527C25.8594 22.438 25.8455 22.224 25.8217 22.0141C25.816 21.9615 25.8094 21.9088 25.8037 21.8569C25.7963 21.8059 25.7898 21.7556 25.7824 21.7054C25.7734 21.6114 25.7603 21.5182 25.7521 21.4266C25.7496 21.3359 25.7406 21.2443 25.7431 21.1568C25.7431 21.1568 25.7431 21.156 25.7431 21.1552C25.7463 21.0693 25.7816 20.9866 25.8446 20.9275C26.6826 20.1463 27.066 19.361 26.509 18.4072C25.5522 16.7679 25.3753 15.3676 25.4719 14.3214C25.485 14.1748 25.322 14.0759 25.1983 14.1594C25.1975 14.1594 25.1959 14.161 25.195 14.1618C24.3382 14.7436 23.5002 14.4543 23.1094 13.49C22.9685 13.1424 22.8268 13.2874 22.672 13.4195C22.3992 13.6513 22.0937 13.7404 21.7373 13.7347C21.0951 13.725 20.4259 13.43 19.8287 13.9632C19.6919 14.0856 19.3806 14.0386 19.175 13.9325C18.4427 13.554 17.6784 13.6715 16.8977 13.6918C16.2104 13.7096 15.5207 13.648 14.8293 13.7169C14.5394 13.7461 14.2821 13.5994 14.2289 13.289C14.1814 13.0103 14.3813 12.8441 14.6123 12.7193L14.6139 12.7169ZM9.41712 17.7752C9.56375 17.6957 9.72185 17.6544 9.88322 17.6812C10.2002 17.733 10.505 17.8165 10.722 17.4559C10.7868 17.3489 10.967 17.3878 11.0948 17.4348C11.379 17.5377 11.524 17.4607 11.5789 17.1463C11.7214 16.3392 12.235 16.1123 12.9584 16.5272C13.0845 16.5993 13.1705 16.6066 13.2647 16.507C13.5432 16.2144 13.8963 16.1788 14.2756 16.1909C14.5893 16.2014 14.5901 16.1852 14.5869 15.8603C14.5836 15.4592 14.8064 15.1456 15.2045 15.0807C15.4175 15.0459 15.5273 14.9624 15.6403 14.7874C16.1482 14.0013 17.3401 14.0516 17.7791 14.8773C17.8832 15.0734 17.9938 15.1626 18.2133 15.1496C18.8269 15.114 19.32 15.276 19.4879 15.9438C19.4945 15.9713 19.5133 16.0199 19.5215 16.0191C20.0777 15.9438 20.226 16.5483 20.6585 16.6861C20.9362 16.7744 21.4572 17.6755 21.4048 17.9672C21.331 18.3781 21.0271 18.5669 20.6462 18.6585C20.2596 18.7508 19.9049 18.3748 19.6141 18.4615C19.3077 18.5531 19.098 18.9437 18.6917 18.9737C18.3722 18.9972 18.0487 18.9818 17.8185 18.7662C17.7259 18.6795 17.6342 18.6106 17.544 18.558C18.1748 19.2127 19.0742 19.8383 20.0949 20.4923C19.9712 20.4801 19.8467 20.4712 19.7189 20.4696C19.5477 20.4664 19.3741 20.4737 19.2012 20.485C19.0284 20.4988 18.8572 20.5182 18.6892 20.5442C18.6466 20.5506 18.6049 20.5579 18.5631 20.5644C18.5221 20.5717 18.482 20.579 18.4418 20.5863C18.3665 20.5968 18.2919 20.6106 18.219 20.6203C18.1461 20.6252 18.0732 20.6357 18.0028 20.6373C17.9323 20.6373 17.8619 20.643 17.7947 20.6373C17.7611 20.6357 17.7275 20.6341 17.6948 20.6325C17.6948 20.6325 17.694 20.6325 17.6931 20.6325C17.6169 20.6001 17.5457 20.5693 17.4687 20.5369C16.783 19.9502 16.4365 19.3148 16.2874 18.7152C15.7321 19.0888 15.1906 18.9008 14.9375 18.2752C14.8457 18.0491 14.754 18.1439 14.6532 18.229C14.4763 18.3797 14.2772 18.4372 14.0462 18.434C13.6284 18.4275 13.1943 18.2354 12.806 18.5831C12.7167 18.6625 12.5144 18.6317 12.3817 18.5628C11.9057 18.3173 11.4093 18.3935 10.9023 18.4064C10.4558 18.4178 10.0077 18.3781 9.55801 18.4226C9.3696 18.4413 9.20249 18.3465 9.16809 18.1447C9.13696 17.9632 9.26721 17.8554 9.41712 17.7744V17.7752ZM14.3632 27.104C11.7247 27.9459 10.6926 26.5051 10.3387 25.7183C9.93729 25.4946 9.5449 25.5862 9.10665 25.8836C8.54962 26.262 8.00488 26.074 7.75175 25.4468C7.66001 25.2207 7.56826 25.3155 7.4675 25.4006C7.29056 25.5513 7.09151 25.6089 6.8605 25.6056C6.44273 25.5992 6.00857 25.4071 5.61947 25.7547C5.531 25.8342 5.32784 25.8034 5.19514 25.7345C4.7192 25.4889 4.22279 25.5651 3.71573 25.5781C3.26928 25.5894 2.8212 25.5497 2.37148 25.5943C2.18307 25.6129 2.01596 25.5181 1.98156 25.3163C1.95125 25.1348 2.08068 25.027 2.23058 24.946C2.37721 24.8666 2.53531 24.8253 2.69669 24.852C3.0137 24.9039 3.31843 24.9873 3.53551 24.6267C3.60023 24.5198 3.78045 24.5587 3.90824 24.6057C4.19249 24.7086 4.33748 24.6316 4.39236 24.3172C4.53489 23.5101 5.04851 23.2832 5.77183 23.6981C5.89799 23.7702 5.98318 23.7775 6.0782 23.6778C6.3559 23.3853 6.70977 23.3496 7.08905 23.3618C7.40279 23.3723 7.40279 23.3561 7.40033 23.0311C7.39706 22.63 7.61987 22.3156 8.01798 22.2516C8.23096 22.2167 8.34073 22.1333 8.45378 21.9574C8.99361 21.1203 10.1257 21.1665 10.591 22.0457C10.6958 22.2435 10.8064 22.3334 11.026 22.3205C11.6395 22.2848 12.1326 22.4469 12.3006 23.1146C12.3071 23.1422 12.326 23.1908 12.3342 23.19C12.8904 23.1146 13.0386 23.7191 13.4712 23.8569C13.7489 23.9452 14.2698 24.8463 14.2174 25.1381C14.1437 25.5497 13.8398 25.7377 13.4589 25.8293C13.0722 25.9217 12.7175 25.5457 12.4275 25.6324C12.14 25.7183 11.9385 26.0659 11.5797 26.1348C12.5316 26.3009 13.798 26.0935 15.2143 25.8496C17.544 25.4484 18.2682 27.557 18.2682 27.557L18.2665 29.6931C18.2665 29.6931 17.8996 25.9752 14.3624 27.104H14.3632ZM17.0951 37.9555C17.0951 37.9555 17.7193 31.7814 22.4517 28.5918C22.4517 28.5918 24.0638 33.5828 17.0951 37.9555ZM37.6209 27.6421C37.2507 27.7126 36.932 27.3406 36.6535 27.4095C36.3594 27.4824 36.1432 27.843 35.7573 27.8528C35.4534 27.8609 35.1479 27.8317 34.9406 27.6178C34.4811 27.1445 34.0305 27.1737 33.4989 27.4994C32.9542 27.8325 32.4479 27.6307 32.2358 27.0262C32.2202 26.9816 32.2038 26.9508 32.1874 26.9289C29.295 29.8414 24.5266 26.9768 22.6139 27.9751C20.6429 29.0043 18.7597 31.1647 18.7597 31.1647C18.2313 28.7968 18.9014 27.0319 20.0433 25.6218C21.1402 24.2677 20.6667 22.2402 19.0742 21.5125C19.0579 21.5052 19.0415 21.4971 19.0243 21.4898C18.6647 21.3286 18.3485 21.1584 18.07 20.9801C18.1273 20.9826 18.1855 20.9842 18.2436 20.9842C18.328 20.9826 18.4132 20.9728 18.5 20.9663C18.5795 20.9574 18.6606 20.9485 18.7417 20.9396C18.9039 20.9234 19.0677 20.9064 19.2323 20.895C19.3962 20.8813 19.56 20.874 19.7214 20.8683C19.8819 20.8642 20.04 20.8626 20.1924 20.8683C20.3267 20.8724 20.4562 20.8821 20.579 20.8958C20.7052 20.9104 20.8264 20.9542 20.9337 21.0215H20.9354C22.02 21.7022 22.4418 22.5619 22.568 23.3302C23.5411 22.6179 24.5225 21.9971 25.2917 21.3934C25.2917 21.4072 25.2901 21.4201 25.2892 21.4339C25.2868 21.5385 25.2933 21.6446 25.2966 21.7532C25.3032 21.8529 25.3097 21.9534 25.3163 22.0547C25.3277 22.2564 25.34 22.4615 25.3441 22.6657C25.3515 22.8699 25.3515 23.0741 25.3499 23.2734C25.3458 23.4736 25.3384 23.6697 25.3228 23.8577C25.2925 24.2345 25.2344 24.5805 25.1451 24.8666C25.1451 24.8666 25.1451 24.8674 25.1451 24.8682C25.1148 24.9663 25.0541 25.053 24.9739 25.1178C23.7369 26.1299 22.6139 26.7385 22.6139 26.7385C22.6139 26.7385 25.0009 26.5327 27.705 27.1502C29.0975 27.4678 30.3132 27.3236 31.1651 27.1089C30.8415 27.0546 30.5155 26.9678 30.2026 27.2215C30.1149 27.2928 29.9249 27.2547 29.8012 27.1834C29.3621 26.9298 28.8878 26.98 28.4078 26.9695C27.9851 26.9606 27.5624 26.903 27.1348 26.9249C26.9554 26.9346 26.8014 26.8374 26.7785 26.6445C26.7572 26.4711 26.885 26.3755 27.0316 26.305C27.1741 26.2361 27.3257 26.2045 27.4772 26.2369C27.7746 26.3001 28.0597 26.3925 28.2817 26.0611C28.3472 25.9622 28.5159 26.0076 28.6355 26.0578C28.9001 26.168 29.0402 26.1016 29.1074 25.8066C29.2786 25.0489 29.775 24.8569 30.441 25.2823C30.5565 25.3561 30.6376 25.3666 30.7318 25.2766C31.0078 25.0125 31.3445 24.9938 31.7033 25.023C31.9998 25.0465 32.0007 25.0311 32.013 24.7232C32.0277 24.3431 32.2538 24.0562 32.6331 24.0125C32.8362 23.989 32.9435 23.9144 33.059 23.754C33.5751 23.0328 34.7014 23.1332 35.0791 23.9339C35.1692 24.1243 35.2691 24.2143 35.478 24.2118C36.0604 24.2053 36.52 24.3804 36.6486 25.0206C36.6535 25.0465 36.6691 25.0935 36.6764 25.0935C37.2064 25.0465 37.3195 25.6259 37.7225 25.775C37.9814 25.8706 38.4336 26.7474 38.3713 27.0205C38.2828 27.4062 37.9863 27.5716 37.6218 27.6413L37.6209 27.6421Z" fill="#FF5968"/>
<path d="M53.408 29L57.56 12.2H64.088L68.24 29H65.336L64.376 24.92H57.272L56.312 29H53.408ZM57.752 22.712H63.896L61.928 14.504H59.72L57.752 22.712ZM70.0003 29V12.2H72.7843V20.816H76.4083L79.5763 15.56H82.7443L78.7363 21.752L82.9603 29H79.8163L76.5763 23.216H72.7843V29H70.0003ZM84.2446 26.6V21.32L93.4126 21.08V17.96H84.7246V15.56H93.7966L96.1966 17.96V29H86.6446L84.2446 26.6ZM87.0286 23.336V26.648H93.4126V22.856L87.0286 23.336ZM98.8753 15.56H115.675L118.267 18.152V29H115.507V17.936H109.939V29H107.203V17.936H101.635V29H98.8753V15.56ZM133.145 15.56V29H123.353L120.953 26.6V15.56H123.737V26.552H130.361V15.56H133.145ZM135.836 29V17.96L138.236 15.56H145.292V18.056H138.62V29H135.836ZM146.966 26.648V17.912L149.318 15.56H156.614L158.966 17.912V26.648L156.614 29H149.318L146.966 26.648ZM149.75 26.648H156.182V17.912H149.75V26.648Z" fill="white"/>
</svg>
