<svg width="244" height="53" viewBox="0 0 244 53" fill="none" xmlns="http://www.w3.org/2000/svg">
<rect x="0.5" y="0.5" width="243" height="52" stroke="url(#paint0_linear_57_6084)"/>
<rect x="0.5" y="0.5" width="243" height="52" stroke="url(#paint1_linear_57_6084)"/>
<path d="M10 53L4.76837e-06 53L9.65481e-07 13.25L9.99999 0L10 53Z" fill="url(#paint2_linear_57_6084)"/>
<rect width="224" height="53" transform="translate(10)" fill="url(#paint3_linear_57_6084)"/>
<path d="M91.04 32V30.368H97.504V27.296L90.88 26.768V22.272L92.352 20.8H99.2V22.432H92.736V25.344L99.36 25.872V30.528L97.888 32H91.04ZM101.93 30.496V20.8H103.786V30.336H108.682V20.8H110.538V30.496L109.034 32H103.434L101.93 30.496ZM114.993 25.456H119.777V22.368H114.993V25.456ZM114.993 30.432H120.081V26.928H114.993V30.432ZM121.649 22.272V25.296L120.833 26.016L121.969 27.008V30.528L120.497 32H113.137V20.8H120.177L121.649 22.272ZM124.234 32V20.8H126.522L129.578 26.416L132.634 20.8H134.922V32H133.098V23.12L130.09 28.608H129.066L126.058 23.12V32H124.234ZM137.342 32.064V30.512L139.134 30.432V22.368L137.342 22.288V20.736L140.062 20.864L142.782 20.736V22.288L140.99 22.368V30.432L142.782 30.512V32.064L140.062 31.936L137.342 32.064ZM147.881 32V22.432H144.617V20.8H153.001V22.432H149.737V32H147.881Z" fill="white"/>
<path d="M234 0H244V39.75L234 53V0Z" fill="url(#paint4_linear_57_6084)"/>
<defs>
<linearGradient id="paint0_linear_57_6084" x1="213.71" y1="18.5" x2="229.316" y2="-8.49023" gradientUnits="userSpaceOnUse">
<stop stop-color="white" stop-opacity="0"/>
<stop offset="1" stop-color="white"/>
</linearGradient>
<linearGradient id="paint1_linear_57_6084" x1="24.4" y1="23" x2="19.7667" y2="54.1867" gradientUnits="userSpaceOnUse">
<stop stop-color="#DE7474" stop-opacity="0"/>
<stop offset="1" stop-color="#DE7474"/>
</linearGradient>
<linearGradient id="paint2_linear_57_6084" x1="5" y1="53" x2="5" y2="3.99431e-07" gradientUnits="userSpaceOnUse">
<stop stop-color="#EB5154" stop-opacity="0.5"/>
<stop offset="1" stop-color="#EB5154" stop-opacity="0"/>
</linearGradient>
<linearGradient id="paint3_linear_57_6084" x1="112" y1="0" x2="112" y2="53" gradientUnits="userSpaceOnUse">
<stop stop-color="#EB5154" stop-opacity="0"/>
<stop offset="1" stop-color="#EB5154" stop-opacity="0.5"/>
</linearGradient>
<linearGradient id="paint4_linear_57_6084" x1="239" y1="0" x2="239" y2="53" gradientUnits="userSpaceOnUse">
<stop stop-color="#EB5154" stop-opacity="0"/>
<stop offset="1" stop-color="#EB5154" stop-opacity="0.5"/>
</linearGradient>
</defs>
</svg>
