<svg width="592" height="184" viewBox="0 0 592 184" fill="none" xmlns="http://www.w3.org/2000/svg">
<g clip-path="url(#clip0_54_1987)">
<path d="M148.719 24H150.136C195.71 47.7796 220.509 61.3733 224.495 64.7939C239.88 71.4578 263.717 83.6199 296.006 101.306C386.218 53.1892 435.791 27.4206 444.723 24C447.57 24.9502 449 27.8007 449 32.5642V42.2559C443.484 52.3404 434.665 59.3716 422.506 63.3624C401.414 75.3471 368.657 92.7416 324.209 115.571V116.711C349.653 128.316 369.796 139.148 384.612 149.232V150.664C378.526 163.409 374.249 169.971 371.795 170.351C323.171 145.242 298.372 131.648 297.423 129.557L220.218 170.351C214.335 165.41 210.147 157.898 207.692 147.813C246.054 127.087 266.184 116.711 268.082 116.711V115.571C233.908 98.6453 195.052 78.0076 151.553 53.6706C145.859 47.5895 143 42.446 143 38.2652V31.1326C145.467 26.5718 147.365 24.19 148.706 24H148.719ZM192.016 133.827C207.021 159.507 216.89 178.713 221.648 191.458C221.648 193.548 219.269 194.878 214.524 195.448L204.833 178.612L155.551 204C153.071 201.53 148.896 194.498 143.013 182.894C147.96 178.523 164.281 169.591 192.016 156.086V153.514C189.928 150.664 187.17 144.95 183.754 136.399C186.79 134.688 189.548 133.84 192.016 133.84V133.827ZM401.414 133.814H402.844C404.172 133.814 405.488 135.144 406.829 137.805C403.223 146.939 401.414 153.02 401.414 156.061C430.287 171.276 446.141 180.208 449 182.868C442.737 196.183 438.549 203.215 436.461 203.975H435.044C412.055 190.66 395.632 182.197 385.763 178.586C385.763 180.106 383.486 185.719 378.918 195.423H376.071C371.504 192.953 369.138 191.141 368.948 190.001C386.041 157.86 396.872 139.122 401.427 133.801L401.414 133.814Z" fill="url(#paint0_linear_54_1987)"/>
</g>
<defs>
<linearGradient id="paint0_linear_54_1987" x1="296" y1="24" x2="296" y2="204" gradientUnits="userSpaceOnUse">
<stop stop-color="#FF5968" stop-opacity="0"/>
<stop offset="0.5" stop-color="#FF5968" stop-opacity="0.12"/>
<stop offset="1" stop-color="#FF5968" stop-opacity="0.5"/>
</linearGradient>
<clipPath id="clip0_54_1987">
<rect width="592" height="184" fill="white"/>
</clipPath>
</defs>
</svg>
