<svg width="592" height="196" viewBox="0 0 592 196" fill="none" xmlns="http://www.w3.org/2000/svg">
<path d="M236.173 16H236.797C236.131 19.5144 235.801 21.6486 235.801 22.4009C235.801 32.5271 246.974 46.5447 269.328 64.452C277.968 59.932 286.942 57.674 296.25 57.674C305.474 57.674 314.238 59.932 322.548 64.452C344.984 46.5447 356.199 32.6124 356.199 22.6524V21.5237C355.618 18.5095 355.328 16.7522 355.328 16.2521V16.0006H355.578C357.822 19.2635 361.891 28.344 367.792 43.2394C371.282 51.1053 374.315 58.5117 376.891 65.4552C366.255 70.2267 360.646 72.6548 360.064 72.7356L348.971 58.0488C343.32 60.7284 337.381 64.3689 331.149 68.9696L330.527 69.5981C335.512 73.784 339.166 77.507 341.495 80.7699C343.155 83.1127 344.443 85.2475 345.357 87.1708H350.593C353.002 87.1708 354.662 88.3448 355.578 90.6853V103.866C355.578 104.286 358.9 110.06 365.548 121.187C361.809 128.05 359.567 132.108 358.818 133.364V133.49C358.818 133.658 361.267 135.121 366.172 137.882C368.58 133.364 370.076 130.727 370.657 129.975C372.485 132.57 373.4 134.116 373.4 134.618L366.67 146.668C371.488 149.431 373.98 150.811 374.147 150.811C376.89 145.959 378.261 143.405 378.261 143.154H378.51C380.834 146.417 382 148.425 382 149.18V150.057C382 155.331 378.925 158.971 372.776 160.978C348.928 165.918 336.424 168.635 335.261 169.138C331.023 176.587 325.291 183.156 318.062 188.845C313.988 192.276 309.004 194.662 303.105 196C301.193 192.571 299.073 190.854 296.749 190.854H295.376C293.214 190.854 291.18 192.359 289.27 195.371C277.471 191.357 267.291 182.819 258.734 169.767C258.734 169.347 254.413 168.344 245.771 166.752C227.741 162.735 217.854 160.478 216.108 159.975C212.034 157.463 210 153.868 210 149.18V148.803C211.91 145.708 212.948 143.908 213.115 143.405H213.24C213.821 143.908 215.274 146.376 217.603 150.811H217.728L225.207 146.668C220.884 139.138 218.682 135.121 218.599 134.618C220.012 131.69 220.884 130.224 221.218 130.224H221.468C223.543 134.327 224.957 136.879 225.704 137.881L232.933 133.489V133.364C228.527 125.58 226.328 121.563 226.328 121.312L236.672 103.991V91.6896C237.172 88.6753 238.667 87.1697 241.16 87.1697H246.395C246.809 86.9182 247.722 85.5379 249.136 83.029C251.213 79.4315 255.284 74.954 261.35 69.597C254.453 64.2423 248.304 60.3933 242.905 58.0482C236.837 66.4172 233.1 71.3141 231.687 72.735H231.437C221.717 68.3858 216.273 65.9169 215.109 65.3285C224.998 40.393 232.02 23.9513 236.173 16ZM260.603 125.455C264.593 139.514 270.156 146.542 277.303 146.542H278.177C282.082 146.542 286.111 144.536 290.266 140.519L260.603 125.33V125.455ZM301.734 140.519C305.802 144.537 309.959 146.542 314.197 146.542H314.571C322.048 146.542 327.657 139.473 331.396 125.33C314.944 133.864 305.057 138.93 301.734 140.519Z" fill="url(#paint0_linear_54_1988)"/>
<defs>
<linearGradient id="paint0_linear_54_1988" x1="296" y1="16" x2="296" y2="196" gradientUnits="userSpaceOnUse">
<stop stop-color="#FF5968" stop-opacity="0"/>
<stop offset="0.5" stop-color="#FF5968" stop-opacity="0.12"/>
<stop offset="1" stop-color="#FF5968" stop-opacity="0.5"/>
</linearGradient>
</defs>
</svg>
