<svg width="443" height="443" viewBox="0 0 443 443" fill="none" xmlns="http://www.w3.org/2000/svg">
<path d="M442.991 223.66C442.991 221.112 442.922 218.459 442.81 215.784C442.649 209.819 442.297 203.841 441.775 198.755C441.711 198.129 441.64 197.476 441.563 196.804C440.864 187.732 438.357 175.815 436.103 167.016C436.002 166.622 435.894 166.217 435.787 165.813C435.73 165.588 435.673 165.36 435.617 165.141C433.508 156.901 429.913 146.371 426.576 138.086C426.519 137.94 426.462 137.788 426.405 137.643C424.64 133.155 421.911 127.337 419.791 123.012C418.393 120.161 416.557 116.628 414.818 113.521C413.02 110.291 410.775 106.653 409.038 103.784C407.255 100.839 404.865 97.3153 402.619 94.1226C402.482 93.9224 402.344 93.7207 402.21 93.525C399.548 89.6685 395.73 84.7236 392.763 81.1004C392.624 80.9303 392.478 80.7556 392.334 80.5825C392.126 80.3281 391.92 80.0783 391.722 79.8374C389.693 77.3808 386.948 74.1354 384.742 71.8278C384.092 71.1474 383.376 70.3902 382.637 69.6105C381.391 68.2512 380.091 66.8874 378.739 65.5221C378.722 65.5056 378.706 65.486 378.689 65.4695C376.587 63.2477 373.671 60.5065 371.318 58.363C370.968 58.0424 370.625 57.7293 370.298 57.4357C370.119 57.2747 369.932 57.1091 369.747 56.9435C366.152 53.7087 363.451 51.398 359.423 48.1963C358.751 47.6559 358.093 47.1351 357.467 46.6473C357.308 46.5239 357.142 46.396 356.978 46.2695C356.923 46.2259 356.87 46.1852 356.814 46.1416C353.223 43.3372 348.289 39.9142 344.442 37.2634H344.46L343.935 36.9142C334.459 30.6236 326.968 26.6827 324.15 25.2C322.197 24.1734 319.585 22.8232 317.572 21.8944C313.638 19.8261 308.149 17.6149 304.055 15.935C301.923 15.0604 299.05 13.9826 296.885 13.2014C296.871 13.1969 296.857 13.1923 296.844 13.1863C296.823 13.1788 296.799 13.1698 296.778 13.1622C295.227 12.6023 293.301 11.955 291.525 11.3604C290.83 11.1271 290.158 10.9013 289.545 10.6921C289.213 10.5792 288.861 10.4633 288.5 10.3488C288.39 10.3142 288.274 10.2781 288.161 10.242C287.969 10.1818 287.779 10.12 287.582 10.0598C286.157 9.61728 284.612 9.17021 283.176 8.75625C282.602 8.58917 282.044 8.4281 281.529 8.27607C277.018 6.94389 268.635 4.9524 264.187 4.14105C263.84 4.07331 263.506 4.00858 263.188 3.94987C262.087 3.74515 261.022 3.55399 259.994 3.37335C258.481 3.1009 256.982 2.84951 255.502 2.62673C255.386 2.60866 255.27 2.5906 255.156 2.57254C252.059 2.07278 249.071 1.6513 245.8 1.3096C243.683 1.07478 242.123 0.940807 241.163 0.868554C240.898 0.848985 240.628 0.829414 240.354 0.809845C238.861 0.665338 237.367 0.556953 235.872 0.486205C233.843 0.347718 231.842 0.231817 230.097 0.162574C228.772 0.109889 227.29 0.0692476 225.762 0.0421524C225.607 0.0376366 225.451 0.0331182 225.301 0.0301076C224.569 0.0120441 223.791 0.00452027 222.987 0.00452027C222.877 0.00452027 222.762 0.00452027 222.651 0.00452027C222.186 0.0015097 221.724 0 221.267 0C219.959 0 218.699 0.0105418 217.554 0.0331211C215.838 0.0662374 213.94 0.117417 211.976 0.192681C210.378 0.228808 208.684 0.316109 206.93 0.441048C204.339 0.600608 201.804 0.809843 199.583 1.08983C198.771 1.19219 197.927 1.29906 197.067 1.40895C193.941 1.77624 190.905 2.17514 188.207 2.52588C185.293 2.90521 181.771 3.55097 178.465 4.22233C175.718 4.74015 173.079 5.30463 170.691 5.92481C170.419 5.99556 170.137 6.07082 169.859 6.14308C163.842 7.63783 156.947 9.65491 151.57 11.3544C149.341 12.0589 146.793 12.9816 144.247 13.948C144.138 13.9856 144.026 14.0233 143.919 14.0594C139.295 15.652 133.253 18.1357 128.878 20.3289C128.801 20.368 128.72 20.4072 128.641 20.4463C125.619 21.8733 122.512 23.4343 119.464 25.0344C118.865 25.3385 118.265 25.6456 117.666 25.9542C116.348 26.5849 115.078 27.2547 113.852 27.9637C111.387 29.2929 109.033 30.6326 106.967 31.9392C100.293 35.8153 91.7211 41.5806 85.76 46.4893C84.5007 47.5264 83.133 48.6554 81.7187 49.831C80.8626 50.4888 80.0231 51.1361 79.2197 51.7623C76.0556 54.2325 72.5951 57.4011 69.2339 60.6586C67.9129 61.9019 66.5016 63.3094 65.0723 64.7755C63.3405 66.5186 61.684 68.2136 60.1704 69.7625C59.0886 70.8689 57.9361 72.1168 56.7626 73.4264C52.4174 77.9814 47.3485 84.2389 43.8745 89.2515C43.7301 89.4592 43.5811 89.676 43.4352 89.8867C40.7255 93.5762 38.0172 97.4658 35.8672 100.777C32.2939 106.285 27.7998 113.818 24.8704 119.702C24.8704 119.702 24.8704 119.703 24.8704 119.705C24.7109 120.024 24.5469 120.352 24.3829 120.68C22.0328 125.378 19.0131 131.287 17.2363 136.034C15.9062 139.143 14.689 142.191 13.7201 144.961C12.527 148.37 11.2631 152.203 10.0369 156.178C8.50227 160.876 7.13764 165.509 6.20481 169.67C6.11905 170.054 6.03028 170.45 5.94302 170.847C5.26596 173.611 4.67467 176.289 4.21127 178.781C3.98257 180.008 3.75689 181.294 3.53271 182.617C2.67812 187.222 1.94389 191.85 1.54518 195.847C1.38569 197.443 1.22772 199.128 1.07576 200.87C0.725193 204.355 0.463401 207.73 0.324981 210.788C0.296395 211.436 0.270816 212.098 0.248247 212.772C0.0947819 215.917 0 219.061 0 222.078C0 224.714 0.070714 227.25 0.234711 229.603C0.291885 230.419 0.352069 231.265 0.41526 232.124C0.607844 236.396 0.896713 240.545 1.27285 244.225C1.37817 245.255 1.50305 246.357 1.64147 247.496C1.66705 247.712 1.69263 247.927 1.71971 248.142C2.23277 252.276 2.91734 256.855 3.58536 260.497C3.58536 260.497 3.58536 260.499 3.58536 260.5C4.23834 264.11 5.09896 268.17 6.08294 272.308C6.53882 274.26 6.99921 276.145 7.43253 277.838C7.9847 279.994 8.63919 282.309 9.36439 284.696C10.0098 286.89 10.6688 288.997 11.3278 290.942C12.8053 295.303 14.8952 301.075 16.6465 305.337C16.8044 305.722 16.9715 306.123 17.1415 306.528C17.2152 306.707 17.2904 306.892 17.3641 307.068C17.6726 307.809 18.0036 308.576 18.3496 309.361C19.9129 312.967 21.7003 316.872 23.262 319.967C24.4747 322.369 25.9642 325.281 27.4447 328.01C29.3329 331.558 32.011 335.887 34.0151 339.194C35.118 341.014 36.4525 343.058 37.8427 345.108C38.8673 346.654 39.8799 348.129 40.8458 349.457C40.9873 349.651 41.1317 349.85 41.2776 350.05C41.8734 350.888 42.4512 351.695 42.9973 352.449C44.0656 353.928 45.3309 355.598 46.6339 357.274C47.8917 358.921 49.1405 360.507 50.2915 361.88C50.3456 361.945 50.4043 362.013 50.4585 362.079C50.7564 362.443 51.0483 362.8 51.3296 363.141C53.3578 365.598 56.1036 368.844 58.3093 371.151C58.9592 371.83 59.6739 372.586 60.4111 373.365C61.6539 374.722 62.9508 376.082 64.3004 377.445C64.3215 377.466 64.3426 377.49 64.3636 377.511C66.5889 379.834 69.6612 382.785 72.0986 384.95C72.3197 385.152 72.5424 385.355 72.7531 385.543C73.9898 386.654 75.377 387.872 76.8244 389.115C79.167 391.162 80.4895 392.269 82.7223 394.051C83.7153 394.858 84.6797 395.627 85.584 396.332C85.7735 396.479 85.9706 396.631 86.1677 396.782C86.1918 396.8 86.2129 396.818 86.2369 396.836C89.9698 399.786 95.159 403.431 99.116 406.063C99.116 406.063 99.119 406.065 99.1205 406.066C102.763 408.533 109.547 412.668 112.368 414.213C113.137 414.652 114.437 415.385 116.139 416.307C117.105 416.838 118.057 417.353 118.907 417.78C118.913 417.783 118.921 417.788 118.927 417.791C120.846 418.795 123.06 419.918 125.477 421.083C127.794 422.2 129.425 422.96 131.196 423.741C131.544 423.896 131.884 424.045 132.203 424.184C134.217 425.055 136.886 426.195 138.96 427.029C138.973 427.035 138.985 427.039 138.997 427.044C139.999 427.462 142.741 428.536 146.147 429.769C146.188 429.784 146.233 429.802 146.273 429.817C147.373 430.235 148.67 430.681 149.969 431.114C151.169 431.525 152.399 431.933 153.622 432.323C158.898 434.089 165.485 435.791 168.761 436.603C168.783 436.609 168.806 436.615 168.83 436.619C168.913 436.639 168.991 436.658 169.069 436.678C169.283 436.73 169.498 436.785 169.707 436.836C173.479 437.757 176.255 438.349 179.515 438.952C182.359 439.515 185.353 440.047 188.789 440.554C192.167 441.105 196.569 441.561 199.893 441.922C203.802 442.348 209.032 442.66 212.957 442.816C215.537 442.919 218.712 443 221.669 443C223.018 443 224.323 442.983 225.504 442.943C225.523 442.943 225.544 442.943 225.565 442.941C232.271 442.813 238.332 442.393 243.43 441.891C243.443 441.891 243.455 441.889 243.467 441.888C245.092 441.739 246.914 441.532 248.784 441.296C251.146 441.004 253.188 440.71 254.853 440.45C254.948 440.435 255.047 440.42 255.142 440.405C256.076 440.262 256.976 440.117 257.82 439.977C258.04 439.941 258.268 439.901 258.493 439.861C262.146 439.25 266.173 438.508 269.369 437.737C269.509 437.704 269.655 437.668 269.796 437.634C274.773 436.532 279.784 435.266 283.963 433.98C285.272 433.577 286.646 433.142 288.056 432.684C289.247 432.324 290.4 431.969 291.486 431.622C294.631 430.615 298.076 429.333 301.597 427.923C306.085 426.216 310.442 424.414 314.173 422.648C316.296 421.644 318.64 420.52 321.051 419.325C321.204 419.253 321.364 419.177 321.516 419.105C327.323 416.338 334.855 412.169 340.159 408.518C340.374 408.371 340.595 408.219 340.818 408.068C341.644 407.531 342.467 406.987 343.285 406.435C345.771 404.833 348.235 403.203 350.284 401.705C350.603 401.472 350.93 401.233 351.261 400.99C352.293 400.262 353.28 399.545 354.183 398.859C354.682 398.478 355.203 398.079 355.732 397.673C359.222 395.046 362.87 392.188 365.917 389.505C367.579 388.089 369.156 386.689 370.54 385.363C371.651 384.3 372.88 383.138 374.15 381.93C376.059 380.145 377.94 378.348 379.557 376.688C380.771 375.471 381.925 374.276 382.942 373.155C383.731 372.283 384.557 371.356 385.401 370.397C388.585 366.86 391.848 363.077 394.446 359.874C395.695 358.335 396.974 356.666 398.266 354.911C398.578 354.51 398.883 354.116 399.181 353.727C402.693 349.151 406.374 343.437 409.847 337.68C411.472 335.092 413.01 332.584 414.41 330.266C416.515 326.783 418.751 322.554 420.817 318.278C424.043 311.787 427.189 304.163 429.339 298.014C429.823 296.63 430.312 295.17 430.801 293.665C433.249 286.733 435.53 279.493 436.854 273.3C437.338 271.033 437.924 268.432 438.488 265.787C438.61 265.251 438.73 264.718 438.846 264.199C440.933 254.744 442.299 241.851 442.734 232.188C442.758 231.634 442.78 231.068 442.8 230.496C442.806 230.396 442.813 230.292 442.819 230.195C442.946 228.137 443 225.939 443 223.657L442.991 223.66ZM439.871 256.212C439.475 259.067 438.807 262.424 438.106 265.718C436.15 274.296 433.281 284.791 430.432 293.545C428.774 298.237 427.041 302.79 425.472 306.773C424.106 310.24 422.356 314.202 420.462 318.123C420.379 318.29 420.295 318.46 420.212 318.627C420.945 316.613 421.515 314.53 421.933 312.385C422.497 309.489 422.78 306.478 422.779 303.364C422.779 301.238 422.642 299.064 422.384 296.847C435.181 272.102 441.697 246.402 442.523 221.13C442.528 221.786 442.532 222.439 442.532 223.088C442.532 225.655 442.491 228.141 442.412 230.479C441.921 238.276 440.934 248.541 439.872 256.215L439.871 256.212ZM397.955 354.68C394.171 359.541 389.364 365.309 385.107 370.144C383.281 372.173 381.482 374.121 379.849 375.83C379.664 376.024 379.471 376.221 379.279 376.42C377.537 378.164 375.665 379.959 373.871 381.663C371.578 383.806 369.242 385.93 367.271 387.765C366.759 388.242 366.216 388.728 365.658 389.221C362.389 392.005 358.778 394.847 355.599 397.29C373.027 383.093 388.049 365.139 399.642 343.638C400.147 342.7 400.645 341.756 401.137 340.805V340.803C406.563 337.522 410.933 333.674 414.29 329.342C412.769 331.99 411.16 334.744 409.505 337.488C405.901 343.228 401.868 349.358 397.95 354.682L397.955 354.68ZM287.937 432.326C282.09 434.089 275.211 435.931 269.702 437.268C265.77 438.138 261.867 438.904 258.405 439.494C257.241 439.688 256.118 439.87 255.07 440.035C253.045 440.346 250.859 440.655 248.733 440.923C247.099 441.124 245.313 441.326 243.387 441.516C238.046 442.005 230.916 442.384 225.546 442.565C224.177 442.591 222.78 442.606 221.36 442.606C219.398 442.606 217.39 442.579 215.343 442.52C225.714 442.095 236.102 439.94 246.315 436.097C267.911 435.88 288.949 431.941 308.566 424.455C309.557 424.077 310.543 423.687 311.527 423.291C308.223 424.763 304.803 426.227 301.451 427.571C296.907 429.299 292.232 430.929 287.935 432.324L287.937 432.326ZM150.085 430.758C149.027 430.395 147.992 430.032 147.003 429.678C147.369 429.722 147.742 429.749 148.117 429.766C152.013 431.226 155.885 432.565 159.711 433.771C157.597 433.161 155.546 432.544 153.736 431.966C152.641 431.6 151.362 431.184 150.086 430.758H150.085ZM131.35 423.4C129.492 422.573 127.324 421.557 125.64 420.746C123.663 419.793 121.062 418.446 119.092 417.455C118.081 416.927 117.156 416.433 116.325 415.983C115.016 415.262 113.683 414.508 112.555 413.889C112.555 413.889 112.555 413.889 112.553 413.889C112.546 413.885 112.535 413.879 112.526 413.874C109.324 412.041 105.328 409.625 101.88 407.418C102.375 407.587 102.889 407.727 103.422 407.838C115.158 415.063 127.352 421.273 139.443 426.33C139.872 426.695 140.311 427.029 140.762 427.334C140.24 427.133 139.733 426.936 139.267 426.749C139.216 426.729 139.161 426.705 139.109 426.686C135.538 425.195 133.354 424.285 131.351 423.401L131.35 423.4ZM38.1527 344.897C35.3512 340.671 32.4504 335.893 30.1514 332.038C29.3961 330.772 28.5897 329.333 27.7772 327.836C27.6614 327.618 27.547 327.403 27.4372 327.191C24.7079 321.924 21.2655 315.058 18.7107 309.251C18.2819 308.263 17.8712 307.298 17.486 306.379C14.841 299.981 11.9522 291.932 9.72849 284.599C8.56546 280.647 7.44607 276.401 6.45306 272.228C6.35526 271.808 6.25747 271.387 6.15967 270.962C11.5701 291.237 20.7344 310.562 33.2944 328.121C36.0267 337.815 40.0349 346.77 45.2602 354.837C43.9708 353.11 42.7145 351.391 41.5891 349.845C40.4727 348.272 39.2931 346.585 38.1527 344.9V344.897ZM1.4534 200.915C2.06726 194.816 2.95044 188.375 3.90584 182.694C4.66564 178.601 5.51872 174.529 6.31313 170.936C7.48218 166.161 8.91001 161.126 10.3965 156.303C12.6834 149.303 15.3571 142.15 17.5778 136.204C17.5808 136.197 17.5838 136.191 17.5853 136.183C19.1094 132.62 20.784 128.978 22.415 125.574C20.9766 129.962 20.2679 134.658 20.2694 139.617C20.2694 141.742 20.4064 143.917 20.6636 146.133C7.86584 170.88 1.35109 196.58 0.523584 221.854C0.519071 221.199 0.514557 220.547 0.514557 219.9C0.514557 217.44 0.550665 215.051 0.625893 212.799C0.822991 208.744 1.12089 204.692 1.4519 200.915H1.4534ZM48.9524 83.2875C51.277 80.3823 54.2199 76.8419 57.0424 73.6883C57.2711 73.449 57.4983 73.2112 57.7225 72.9823C60.0094 70.6401 62.7086 67.7485 65.3461 65.045C66.6942 63.6887 68.0874 62.3053 69.5002 60.9355C69.6386 60.8061 69.7785 60.6736 69.914 60.5472C73.3714 57.3439 77.8626 53.537 81.9535 50.1351C82.6155 49.6278 83.288 49.1145 83.9756 48.5937C68.0182 62.3099 54.2199 79.2865 43.4051 99.3459C42.8996 100.284 42.4015 101.228 41.9096 102.177V102.179C36.0929 105.697 31.4905 109.865 28.0495 114.584C32.6806 106.38 38.7756 97.2972 43.7436 90.117C45.534 87.6785 47.326 85.3257 48.9539 83.2906L48.9524 83.2875ZM136.586 17.3695C138.913 16.4377 141.644 15.3464 144.376 14.3093C152 11.6931 162.061 8.59519 169.951 6.51489C171.275 6.18523 172.558 5.88116 173.769 5.61322C175.226 5.28959 176.852 4.94186 178.534 4.60016C184.656 3.4456 191.34 2.52889 197.104 1.7913C200.379 1.40594 203.751 1.0552 206.937 0.826401C208.621 0.722536 210.327 0.641255 211.99 0.576528C212.196 0.572012 212.406 0.56448 212.61 0.561469C215.589 0.517816 219.336 0.395893 222.646 0.388367C223.68 0.394388 224.726 0.406429 225.752 0.424492C226.278 0.43804 226.822 0.456107 227.38 0.475676C217.116 0.930273 206.835 3.08433 196.727 6.8882C172.939 7.12603 149.829 11.8857 128.551 20.922C128.637 20.8798 128.723 20.8362 128.808 20.794C131.508 19.5191 134.138 18.3525 136.587 17.371L136.586 17.3695ZM287.467 10.4241C287.645 10.4798 287.818 10.534 287.991 10.5897C288.12 10.6303 288.251 10.671 288.378 10.7116C288.698 10.814 289.008 10.9163 289.306 11.0172C289.941 11.2325 290.641 11.4673 291.364 11.7096C292.919 12.232 294.593 12.7949 296.04 13.3067C295.675 13.2631 295.303 13.236 294.929 13.2194C290.877 11.7021 286.851 10.3097 282.876 9.06785C282.94 9.08591 283.002 9.10397 283.068 9.12354C284.491 9.53599 286.037 9.98307 287.467 10.4256V10.4241ZM359.194 48.5049C359.342 48.6238 359.488 48.7412 359.638 48.8616C355.665 45.824 351.444 42.8149 346.985 39.8525C346.974 39.8374 346.961 39.8239 346.95 39.8088C346.758 39.5499 346.561 39.2985 346.353 39.0592C349.789 41.4541 353.664 44.2043 356.734 46.5676C357.615 47.2555 358.429 47.8967 359.196 48.5064L359.194 48.5049ZM412.894 110.949C413.401 111.801 413.935 112.731 414.478 113.702C414.881 114.426 415.26 115.127 415.606 115.796C418.71 121.784 422.735 129.84 425.33 136.057C425.622 136.757 425.919 137.485 426.217 138.225C429.418 146.421 433.12 157.265 435.414 165.91C435.891 167.799 436.395 169.893 436.887 172.039C431.478 151.76 422.311 132.431 409.749 114.868C406.984 105.059 402.909 96.0042 397.592 87.8606C398.358 88.8676 399.088 89.8476 399.742 90.7523C400.541 91.8571 401.411 93.0734 402.302 94.3409C405.711 99.3204 409.883 105.888 412.894 110.949ZM442.233 215.611C442.233 242.416 435.826 269.818 422.305 296.158C421.856 292.643 421.086 289.017 420.012 285.299C422.375 272.446 423.534 259.359 423.534 246.211C423.534 242.326 423.429 238.436 423.227 234.546C435.017 227.396 441.038 217.144 441.787 204.895C441.909 206.598 442.027 208.339 442.132 210.096C442.192 211.931 442.231 213.769 442.231 215.611H442.233ZM422.102 308.718C422.075 308.966 422.044 309.213 422.013 309.46C421.392 314.342 420.006 318.915 417.82 323.129C417.368 323.929 416.903 324.752 416.428 325.594C412.987 331.187 408.025 336.081 401.473 340.145C401.84 339.43 402.205 338.715 402.563 337.996C406.535 330.007 409.919 321.799 412.742 313.426C416.089 308.266 419.202 302.935 422.069 297.442C422.205 298.726 422.3 299.995 422.35 301.249C422.378 301.958 422.397 302.664 422.397 303.362C422.397 304.434 422.359 305.49 422.293 306.537C422.246 307.271 422.183 307.998 422.103 308.719L422.102 308.718ZM282.024 431.847C278.884 432.508 275.721 433.085 272.536 433.578C271.728 433.703 270.92 433.822 270.111 433.937C267.856 434.254 265.591 434.531 263.318 434.765C262.766 434.822 262.213 434.876 261.661 434.927C260.16 435.067 258.655 435.191 257.146 435.293C253.889 435.516 250.615 435.657 247.326 435.708C254.799 432.812 262.173 429.011 269.372 424.325C274.173 424.696 278.836 424.887 283.334 424.887C296.889 424.887 308.978 423.184 319.033 419.639C307.943 424.745 296.314 428.658 284.321 431.348C283.557 431.519 282.793 431.686 282.026 431.847H282.024ZM207.115 442.112C205.543 442.002 203.931 441.876 202.315 441.734C203.298 441.763 204.268 441.778 205.227 441.779C216.291 441.779 225.693 439.842 232.527 435.731C236.51 435.981 240.48 436.113 244.433 436.113C244.684 436.113 244.934 436.109 245.185 436.107C234.084 440.161 222.786 442.222 211.546 442.222C210.067 442.222 208.591 442.184 207.115 442.113V442.112ZM187.766 440.003C185.103 439.554 182.937 439.187 180.996 438.841C170.915 436.883 160.18 433.825 149.227 429.776C152.376 429.705 155.808 428.749 159.487 426.94C170.163 433.723 181.31 438.27 192.661 440.644C191.052 440.462 189.421 440.25 187.768 440.003H187.766ZM143.288 428.293C142.416 427.919 141.579 427.447 140.776 426.88C142.778 427.705 144.776 428.498 146.768 429.258C145.988 429.15 145.228 428.98 144.491 428.743C144.096 428.596 143.695 428.445 143.288 428.292V428.293ZM139.634 425.996C138.426 424.956 137.303 423.674 136.274 422.143C133.051 417.348 130.754 410.111 129.564 400.336C138.799 411.278 148.73 420.047 159.11 426.699C155.403 428.494 151.968 429.406 148.852 429.406C148.628 429.406 148.408 429.395 148.189 429.386C145.348 428.32 142.494 427.193 139.634 425.996ZM65.4379 378.056C65.0121 377.628 64.5698 377.177 64.1124 376.704C62.8425 375.37 61.4794 373.913 60.0847 372.397C69.0353 380.619 79.829 387.244 92.3349 391.984C92.7788 396.219 93.8274 399.672 95.4885 402.293C83.7183 394.411 73.6317 386.198 65.4394 378.057L65.4379 378.056ZM3.06328 254.786C3.03921 254.618 3.01664 254.446 2.99407 254.278C6.33871 267.362 14.2407 281.862 26.235 296.889C27.1528 298.039 28.0992 299.194 29.0651 300.348C29.4051 309.731 30.7337 318.666 33.0071 327.061C17.5251 305.159 7.31819 280.54 3.06479 254.786H3.06328ZM0.810952 227.374C0.810952 200.567 7.21738 173.162 20.7404 146.821C20.9766 148.673 21.3001 150.554 21.7108 152.465C21.8477 153.1 21.9937 153.736 22.1486 154.378C22.4134 155.469 22.7129 156.569 23.0318 157.677C22.8483 158.675 22.6722 159.675 22.5022 160.674C20.4936 172.565 19.5066 184.643 19.5066 196.774C19.5066 200.658 19.612 204.546 19.8121 208.437C8.04188 215.575 2.02213 225.805 1.2563 238.028C1.14647 236.721 1.04416 235.437 0.947872 234.184C0.856094 231.918 0.809455 229.648 0.809455 227.374H0.810952ZM234.537 0.815863C236.088 0.90618 237.618 1.00252 239.06 1.10187C239.705 1.15155 240.339 1.20273 240.955 1.2524C240.998 1.25692 241.041 1.26144 241.083 1.26595C239.981 1.22982 238.888 1.20574 237.815 1.20574C226.751 1.20574 217.349 3.14304 210.515 7.25398C206.531 7.0041 202.561 6.87164 198.607 6.87164C198.355 6.87164 198.106 6.87615 197.854 6.87766C208.955 2.82392 220.253 0.763182 231.495 0.763182C232.509 0.763182 233.524 0.781241 234.537 0.815863ZM293.815 13.2089C290.666 13.2796 287.234 14.2355 283.556 16.0449C272.879 9.26204 261.733 4.71606 250.383 2.34072C252.008 2.52436 253.654 2.73963 255.326 2.988C257.557 3.35077 259.85 3.75419 262.356 4.20126C272.347 6.16265 282.975 9.20032 293.815 13.2089ZM303.407 16.9887C304.616 18.0288 305.737 19.3113 306.767 20.8422C309.989 25.6365 312.287 32.874 313.477 42.6493C304.24 31.7074 294.31 22.9376 283.93 16.2857C287.638 14.4914 291.072 13.5792 294.188 13.5807C294.413 13.5807 294.632 13.5912 294.852 13.6003C297.693 14.666 300.545 15.7935 303.407 16.9902V16.9887ZM296.274 13.7267C298.445 14.0293 300.444 14.818 302.265 16.1051C300.264 15.2817 298.266 14.4869 296.274 13.7267ZM377.606 64.9306C377.979 65.3054 378.364 65.6983 378.763 66.1077C380.069 67.4895 381.488 69.0009 382.944 70.5724C373.998 62.358 363.21 55.7393 350.712 51.0021C350.704 50.9299 350.694 50.8621 350.685 50.7914C350.644 50.4196 350.597 50.0523 350.548 49.6925C350.53 49.5616 350.51 49.4321 350.492 49.3027C350.433 48.9143 350.369 48.5305 350.298 48.1571C350.287 48.1045 350.28 48.0503 350.269 47.9976C350.188 47.5761 350.098 47.1667 350.002 46.7633C349.976 46.6564 349.949 46.5525 349.922 46.4471C349.844 46.1371 349.761 45.8315 349.674 45.5334C349.643 45.4326 349.615 45.3302 349.585 45.2294C349.47 44.8545 349.35 44.4857 349.221 44.1305C349.216 44.12 349.213 44.1079 349.21 44.0974C349.195 44.0537 349.176 44.0146 349.161 43.9724C349.048 43.6699 348.93 43.3764 348.807 43.0873C348.762 42.982 348.717 42.8796 348.67 42.7757C348.553 42.5138 348.431 42.2594 348.304 42.0096C348.268 41.9388 348.234 41.8635 348.198 41.7943C348.037 41.4872 347.868 41.1922 347.692 40.9047C347.648 40.8324 347.602 40.7632 347.557 40.6924C359.328 48.5756 369.415 56.7885 377.607 64.9291L377.606 64.9306ZM441.489 202.228C441.485 215.48 435.619 226.504 423.203 234.113C422.108 213.605 418.247 193.077 411.812 173.183C413.326 164.344 414.07 155.766 414.07 147.509C414.07 146.079 414.042 144.661 413.997 143.252C414.851 144.28 415.694 145.307 416.511 146.332C430.718 164.127 439.154 181.17 441.07 195.928C441.115 196.315 441.157 196.703 441.201 197.092C441.279 198.105 441.36 199.151 441.441 200.224C441.471 200.897 441.491 201.568 441.491 202.231L441.489 202.228ZM348.395 382.143C348.39 395.484 342.447 406.569 329.858 414.183C327.973 415.218 326.07 416.215 324.15 417.178C313.233 422.134 299.313 424.508 283.331 424.508C278.998 424.508 274.51 424.33 269.893 423.985C279.071 417.95 287.961 410.475 296.405 401.596C314.667 395.34 332.061 387.012 348.085 376.796C348.288 378.614 348.395 380.4 348.395 382.144V382.143ZM244.433 435.731C240.665 435.731 236.88 435.614 233.084 435.385C238.89 431.716 242.21 426.707 243.221 420.78C252.062 422.45 260.604 423.625 268.745 424.277C261.396 429.02 253.869 432.841 246.246 435.716C245.641 435.722 245.037 435.731 244.433 435.731ZM56.8363 368.716C56.2706 368.04 55.7184 367.364 55.1813 366.691C46.9694 356.407 42.066 346.556 40.8819 338.015C54.7766 354.921 72.0309 369.882 92.2778 382.081C92.1514 383.793 92.0867 385.429 92.0867 386.982C92.0867 388.596 92.1574 390.119 92.2928 391.56C78.2252 386.201 66.3496 378.446 56.8378 368.716H56.8363ZM40.5976 334.067C40.6006 328.235 42.5445 323.152 46.6128 319.101C51.4003 323.724 56.5399 328.354 62.018 332.97C71.2184 346.598 81.8226 359.413 93.7417 371.115C93.0421 374.895 92.5651 378.413 92.3093 381.655C71.9812 369.382 54.6878 354.318 40.7917 337.297C40.6653 336.198 40.5976 335.119 40.5976 334.067ZM1.56474 241.51C1.56022 241.257 1.55271 241.004 1.55271 240.753C1.55722 227.5 7.4235 216.477 19.8391 208.868C20.9345 229.377 24.7952 249.905 31.2302 269.8C29.7166 278.639 28.9718 287.218 28.9718 295.474C28.9718 296.903 29.0004 298.319 29.0456 299.73C28.191 298.702 27.3484 297.675 26.5314 296.651C13.3229 280.107 5.10347 264.214 2.4735 250.203C2.13347 247.341 1.83105 244.404 1.56474 241.51ZM106.968 32.3908C107.11 32.305 107.25 32.2192 107.39 32.1349C107.838 31.876 108.289 31.614 108.754 31.3476C98.9535 38.8349 94.2623 48.976 94.2668 60.8362C94.2668 62.6546 94.3826 64.5151 94.6008 66.4118C81.6405 74.7059 69.586 84.2404 58.7005 94.9174C52.7349 96.6966 47.32 98.9862 42.5324 101.804C54.8819 78.141 71.3327 58.6701 90.5791 43.6774C96.1385 39.6207 101.948 35.5775 106.968 32.3893V32.3908ZM386.204 74.2648C386.77 74.9407 387.322 75.6166 387.859 76.2895C396.071 86.5736 400.975 96.4242 402.159 104.965C388.264 88.0593 371.01 73.0983 350.764 60.8994C350.891 59.1879 350.955 57.5516 350.955 55.9982C350.955 55.4713 350.945 54.958 350.931 54.4507C350.927 54.3032 350.921 54.1572 350.916 54.0112C350.901 53.6213 350.883 53.239 350.861 52.8597C350.853 52.7362 350.847 52.6098 350.838 52.4879C350.813 52.1266 350.784 51.7713 350.751 51.4206C364.819 56.7794 376.694 64.5347 386.206 74.2648H386.204ZM402.443 108.914C402.44 114.744 400.496 119.827 396.429 123.878C391.64 119.253 386.499 114.62 381.018 110.005C371.819 96.379 361.217 83.566 349.299 71.8654C349.65 69.9703 349.946 68.1383 350.185 66.3771C350.191 66.335 350.196 66.2943 350.202 66.2522C350.43 64.5452 350.608 62.9044 350.733 61.3269C371.061 73.5995 388.354 88.6644 402.25 105.685C402.377 106.784 402.445 107.863 402.445 108.915L402.443 108.914ZM413.688 147.506C413.688 155.514 412.981 163.831 411.553 172.395C406.532 157.048 399.98 142.087 391.983 127.811C393.665 126.783 395.146 125.643 396.429 124.406C402.789 130.564 408.525 136.706 413.599 142.772C413.655 144.339 413.687 145.915 413.687 147.506H413.688ZM412.391 313.261C404.265 325.779 394.762 337.291 384.146 347.715C373.942 350.747 362.116 352.294 349.057 352.439C348.378 352.446 347.698 352.449 347.014 352.449C346.084 352.449 345.149 352.442 344.208 352.428C343.084 352.412 341.949 352.382 340.81 352.347C339.268 349.206 337.509 346.011 335.537 342.773C343.741 325.285 350.19 306.704 354.912 287.575C366.186 274.071 376.286 259.721 384.88 244.736C389.168 244.493 393.28 244.057 397.197 243.427C408.124 257.946 415.661 271.957 419.482 284.826C419.53 284.99 419.574 285.151 419.621 285.315C418.768 289.941 417.755 294.537 416.586 299.093C415.363 303.86 413.966 308.587 412.393 313.261H412.391ZM243.176 416.712C243.176 417.954 243.086 419.161 242.907 420.332C235.587 418.938 228.063 417.205 220.39 415.145C227.964 414.969 235.509 414.457 242.997 413.606C243.115 414.661 243.176 415.699 243.176 416.71V416.712ZM223.421 434.557C223.108 434.522 222.797 434.489 222.484 434.453C218.014 433.935 213.533 433.255 209.05 432.419C208.771 432.368 208.495 432.321 208.216 432.269C205.019 431.658 201.82 430.958 198.625 430.184C196.967 429.782 195.309 429.367 193.652 428.921C187.643 427.304 181.643 425.394 175.671 423.19C175.617 423.171 175.561 423.151 175.507 423.132C174.929 422.918 174.353 422.692 173.777 422.474C173.149 422.236 172.522 422.003 171.895 421.757C170.986 421.402 170.077 421.033 169.17 420.665C172.071 418.375 175.083 415.665 178.193 412.542C190.294 414.341 202.46 415.223 214.571 415.223C216.066 415.223 217.56 415.206 219.052 415.179C227.166 417.391 235.119 419.239 242.847 420.71C241.83 426.687 238.44 431.689 232.432 435.341C229.435 435.151 226.432 434.891 223.423 434.558L223.421 434.557ZM161.108 417.199C158.802 416.152 156.503 415.054 154.212 413.915C154.13 413.874 154.049 413.837 153.968 413.796C150.886 412.26 147.822 410.632 144.77 408.931C143.999 408.5 143.227 408.067 142.456 407.624C140.786 406.667 139.121 405.682 137.46 404.675C136.984 404.388 136.51 404.102 136.036 403.81C134.29 402.732 132.549 401.62 130.814 400.486C146.161 406.12 161.885 410.084 177.722 412.47C174.63 415.562 171.637 418.24 168.759 420.497C166.207 419.454 163.662 418.36 161.125 417.207C161.119 417.204 161.113 417.201 161.107 417.199H161.108ZM99.1987 405.667C98.4344 405.145 97.7393 404.525 97.1059 403.814C98.8346 404.951 100.575 406.066 102.328 407.158C101.201 406.811 100.169 406.325 99.2379 405.694C99.2243 405.685 99.2123 405.676 99.1987 405.667ZM96.3325 402.855C96.2363 402.725 96.14 402.597 96.0482 402.461C94.3134 399.908 93.2076 396.443 92.7336 392.133C103.484 396.161 115.493 398.802 128.688 399.863C119.686 405.231 112.361 407.784 106.746 407.782C105.611 407.782 104.549 407.675 103.553 407.471C101.126 405.974 98.7173 404.438 96.334 402.855H96.3325ZM94.6459 60.8377C94.6504 47.7944 100.333 36.9111 112.35 29.317C113.937 28.4319 115.583 27.5332 117.258 26.6361C117.8 26.3576 118.343 26.0776 118.887 25.8051C129.805 20.8482 143.726 18.4744 159.709 18.4744C164.042 18.4744 168.53 18.652 173.148 18.9967C163.969 25.0314 155.078 32.5082 146.635 41.3879C128.374 47.6438 110.979 55.9711 94.9559 66.186C94.7527 64.3676 94.6459 62.5823 94.6459 60.8377ZM341.408 36.0607C341.615 36.1389 341.818 36.2202 342.018 36.3075C342.101 36.3437 342.184 36.3828 342.265 36.4219C342.446 36.5062 342.623 36.595 342.798 36.6884C342.877 36.7305 342.957 36.7727 343.035 36.8178C343.219 36.9217 343.4 37.0316 343.576 37.146C343.634 37.1836 343.696 37.2197 343.755 37.2589C344.007 37.4275 344.253 37.6081 344.49 37.7978C344.549 37.8444 344.605 37.8941 344.663 37.9423C344.844 38.0928 345.021 38.2493 345.194 38.4119C345.264 38.4781 345.334 38.5429 345.402 38.6106C345.583 38.7882 345.757 38.9734 345.927 39.1646C344.201 38.0311 342.465 36.9187 340.717 35.8304C340.882 35.8815 341.049 35.9297 341.21 35.9869C341.275 36.0095 341.338 36.0366 341.403 36.0607H341.408ZM330.678 351.789C329.237 351.676 327.787 351.552 326.324 351.412C315.382 350.362 303.849 348.522 291.9 345.936C301.839 338.813 311.468 331.107 320.676 322.893C321.611 324.013 322.527 325.13 323.416 326.244C327.895 331.854 331.796 337.389 335.105 342.801C333.682 345.829 332.209 348.828 330.678 351.789ZM335.344 343.189C337.22 346.281 338.899 349.332 340.38 352.334C337.339 352.231 334.241 352.06 331.089 351.819C332.556 348.974 333.973 346.096 335.344 343.189ZM178.062 412.136C162.034 409.741 146.123 405.728 130.6 400.001C134.345 400.257 138.123 400.391 141.936 400.391C151.202 400.391 160.654 399.645 170.208 398.207C175.271 400.336 180.325 402.345 185.353 404.234C182.869 407.105 180.436 409.745 178.06 412.137L178.062 412.136ZM185.737 404.376C196.563 408.43 207.276 411.922 217.728 414.815C216.676 414.829 215.625 414.841 214.573 414.841C202.571 414.841 190.518 413.974 178.527 412.205C180.877 409.828 183.281 407.218 185.737 404.376ZM42.1969 102.444C46.8987 99.6109 52.2323 97.3003 58.1167 95.4924C48.0316 105.463 38.9651 116.422 31.1339 128.293C34.1806 119.467 37.8608 110.828 42.1969 102.444ZM30.6509 129.714C38.7771 117.194 48.2814 105.682 58.9006 95.2561C68.5734 92.381 79.7056 90.8426 91.9648 90.5671C93.3069 90.537 94.6625 90.5219 96.0316 90.5219C97.8898 90.5219 99.772 90.549 101.678 90.6047C101.862 90.6108 102.047 90.6183 102.23 90.6243C103.773 93.7673 105.533 96.9646 107.507 100.204C99.3026 117.691 92.854 136.274 88.1312 155.401C76.856 168.907 66.7559 183.257 58.1633 198.242C53.8768 198.484 49.7679 198.919 45.853 199.55C34.784 184.845 27.201 170.66 23.426 157.656C25.1713 148.191 27.5756 138.854 30.6539 129.715L30.6509 129.714ZM336.297 35.1981C336.631 35.1981 336.956 35.2102 337.277 35.2282C337.395 35.2343 337.509 35.2448 337.624 35.2538C337.83 35.2689 338.033 35.2884 338.234 35.311C338.359 35.3261 338.483 35.3411 338.606 35.3592C338.8 35.3863 338.993 35.4179 339.181 35.4525C339.283 35.4706 339.387 35.4887 339.489 35.5097C341.918 37.006 344.325 38.5429 346.708 40.1249C346.741 40.1701 346.774 40.2168 346.807 40.2634C346.952 40.4651 347.092 40.6744 347.229 40.8881C347.274 40.9589 347.319 41.0266 347.364 41.0989C347.537 41.3819 347.704 41.6754 347.864 41.9779C347.894 42.0366 347.922 42.0984 347.952 42.1571C348.082 42.4115 348.207 42.6734 348.327 42.9413C348.369 43.0362 348.411 43.131 348.452 43.2258C348.574 43.5103 348.691 43.8008 348.802 44.1004C348.822 44.1531 348.845 44.2043 348.864 44.2585C348.991 44.6047 349.108 44.9629 349.219 45.3287C349.252 45.4356 349.282 45.5455 349.314 45.6539C349.395 45.9353 349.473 46.2229 349.547 46.5164C349.576 46.6308 349.606 46.7452 349.633 46.8611C349.726 47.251 349.813 47.6499 349.893 48.0578C349.905 48.1225 349.916 48.1903 349.928 48.255C349.994 48.6117 350.056 48.976 350.113 49.3478C350.132 49.4803 350.152 49.6143 350.172 49.7482C350.221 50.1005 350.265 50.4587 350.306 50.823C350.306 50.8305 350.307 50.8396 350.308 50.8471C339.558 46.819 327.549 44.1787 314.354 43.1174C317.623 41.1681 320.675 39.583 323.499 38.3653C328.452 36.2293 332.72 35.1966 336.297 35.1981ZM312.44 42.9775C308.695 42.7216 304.916 42.5876 301.103 42.5876C291.838 42.5876 282.388 43.3342 272.834 44.7702C267.77 42.6418 262.716 40.6307 257.688 38.7416C260.17 35.871 262.605 33.2322 264.977 30.8418C281.005 33.2367 296.916 37.2498 312.439 42.9759L312.44 42.9775ZM364.313 207.129C352.872 196.604 339.877 186.082 325.441 175.781C325.113 175.548 324.785 175.315 324.457 175.081C321.51 172.989 318.505 170.907 315.439 168.836C314.405 168.138 313.363 167.441 312.315 166.744C312.691 166.017 313.065 165.291 313.436 164.569C314.034 163.403 314.622 162.247 315.204 161.096C316.366 158.8 317.499 156.53 318.604 154.284C319.137 153.204 319.664 152.127 320.183 151.059C321.856 147.611 323.458 144.229 324.994 140.908C325.247 140.362 325.498 139.819 325.747 139.275C326.157 138.38 326.564 137.488 326.965 136.602C327.189 136.108 327.411 135.614 327.632 135.124C328.531 133.119 329.406 131.138 330.254 129.182C339.366 131.494 348.089 133 356.143 133.632C361.569 156.75 364.317 181.38 364.317 206.37C364.317 206.623 364.313 206.876 364.313 207.131V207.129ZM171.115 101.952C174.884 102.987 178.685 104.091 182.508 105.26C184.237 105.789 185.971 106.33 187.709 106.887C188.376 107.101 189.044 107.316 189.712 107.533C194.344 109.038 199.008 110.637 203.695 112.329C205.413 112.949 207.133 113.581 208.856 114.226C199.175 132.95 190.047 152.734 181.655 172.906C157.067 155.71 137.15 137.738 122.608 120.378C131.897 112.091 141.617 104.324 151.651 97.1482C158.032 98.5391 164.528 100.142 171.115 101.952ZM272.783 45.1616C280.506 48.41 288.253 51.9339 295.974 55.7182C283.453 65.8608 269.708 79.2263 255.423 94.937C246.17 88.7833 237.946 82.4235 230.848 76.0501C236.862 66.3832 242.737 57.7744 248.405 50.2691C256.571 48.0924 264.715 46.3794 272.784 45.1616H272.783ZM248.775 49.7783C251.563 46.1039 254.301 42.6945 256.981 39.5605C257.128 39.3873 257.274 39.2218 257.421 39.0502C262.299 40.8806 267.201 42.8269 272.113 44.8831C264.384 46.0738 256.591 47.7131 248.773 49.7783H248.775ZM266.334 139.557C264.245 138.462 262.152 137.383 260.056 136.322C255.494 134.011 250.922 131.782 246.345 129.631C245.684 129.321 245.024 129.012 244.362 128.705C242.848 128.002 241.335 127.307 239.82 126.622C237.435 125.541 235.05 124.483 232.667 123.447C232.373 123.319 232.08 123.191 231.787 123.065C239.771 113.255 247.708 103.999 255.485 95.4367C272.086 106.445 289.887 115.394 307.191 121.894C304.908 133.487 302.122 145.621 298.877 158.12C288.191 151.498 277.307 145.302 266.334 139.558V139.557ZM255.745 95.1507C270.06 79.4129 283.828 66.0339 296.35 55.9034C302.36 58.8552 308.351 61.9667 314.303 65.2316C313.812 81.4932 311.364 100.615 307.266 121.513C290.025 115.033 272.286 106.115 255.745 95.1507ZM343.535 92.9906C341.466 88.0277 339.248 83.1897 336.88 78.4932C339.953 80.423 343.005 82.3919 346.034 84.4014C345.292 87.1621 344.459 90.0267 343.535 92.9906ZM348.89 71.9964C348.19 75.7461 347.272 79.7546 346.138 84.0131C342.966 81.9102 339.768 79.8525 336.548 77.8369C330.296 65.5402 323.019 54.2189 314.732 44.1516C315.449 44.6333 316.168 45.115 316.88 45.6042C328.408 53.5355 339.092 62.3911 348.891 71.9964H348.89ZM335.923 77.447C328.932 73.0877 321.841 68.9391 314.69 65.0103C314.747 63.064 314.778 61.1553 314.778 59.2933C314.778 53.7553 314.523 48.6012 314.005 43.8656C322.328 53.8863 329.64 65.1729 335.925 77.4455L335.923 77.447ZM314.396 59.2933C314.396 61.0891 314.366 62.93 314.313 64.8041C308.467 61.5994 302.581 58.5436 296.678 55.6414C302.623 50.8516 308.285 46.7979 313.59 43.5766C314.131 48.3844 314.398 53.6394 314.398 59.2948L314.396 59.2933ZM314.677 65.4379C321.946 69.4344 329.153 73.6582 336.256 78.1018C338.793 83.0979 341.162 88.252 343.359 93.5521C340.053 104.077 335.61 115.853 330.036 128.734C322.764 126.875 315.246 124.498 307.629 121.648C311.72 100.794 314.173 81.6995 314.679 65.4379H314.677ZM348.974 71.5463C343.318 66.0129 337.366 60.7323 331.128 55.7318C330.176 54.9686 329.218 54.2114 328.252 53.4618C327.009 52.4954 325.756 51.541 324.49 50.5972C322.792 49.3298 321.072 48.0834 319.334 46.8566C317.98 45.9022 316.614 44.9614 315.237 44.0327C327.775 48.8405 339.504 54.5727 350.369 61.1026C350.123 64.3119 349.66 67.7951 348.974 71.5448V71.5463ZM296.301 55.4548C288.715 51.7322 281.103 48.2595 273.513 45.0547C282.836 43.6804 292.061 42.9684 301.105 42.9684C305.154 42.9684 309.165 43.1159 313.135 43.405C307.847 46.6383 302.212 50.6845 296.301 55.4548ZM255.165 95.223C247.374 103.803 239.424 113.077 231.426 122.907C230.991 122.72 230.557 122.535 230.123 122.35C228.904 121.827 227.685 121.313 226.468 120.802C224.923 120.155 223.378 119.517 221.834 118.889C217.677 117.197 213.529 115.573 209.394 114.021C216.595 100.115 223.712 87.5475 230.646 76.3813C237.736 82.7426 245.94 89.0859 255.166 95.2245L255.165 95.223ZM209.217 114.361C209.501 114.468 209.785 114.575 210.07 114.682C214.37 116.305 218.685 118.005 223.008 119.78C223.712 120.069 224.416 120.36 225.12 120.653C227.138 121.492 229.155 122.344 231.174 123.214C228.305 126.742 225.431 130.341 222.555 134.005C211.564 148.01 200.563 162.961 189.834 178.483C187.163 176.709 184.542 174.922 181.972 173.129C190.375 152.925 199.517 133.11 209.214 114.361H209.217ZM189.62 178.797C181.482 190.58 173.505 202.691 165.812 214.975C170.769 201.109 176.127 187.211 181.826 173.489C184.375 175.267 186.972 177.037 189.62 178.797ZM222.857 134.24C225.753 130.549 228.65 126.924 231.538 123.37C234.797 124.779 238.059 126.229 241.32 127.721C241.648 127.871 241.976 128.022 242.304 128.172C261.341 136.927 280.354 147.083 298.774 158.504C293.283 179.603 286.494 201.724 278.655 223.988C249.039 212.872 218.562 197.542 190.152 178.694C200.876 163.181 211.871 148.238 222.856 134.24H222.857ZM299.217 158.331C302.471 145.807 305.265 133.647 307.553 122.029C315.142 124.865 322.634 127.236 329.883 129.09C325.112 140.088 319.519 151.885 313.101 164.395C312.737 165.106 312.368 165.819 311.999 166.533C310.925 165.821 309.849 165.112 308.771 164.409C305.606 162.345 302.418 160.321 299.215 158.332L299.217 158.331ZM330.411 128.827C330.478 128.672 330.545 128.517 330.611 128.362C332.182 124.724 333.664 121.171 335.052 117.712C335.052 117.709 335.054 117.706 335.055 117.704C338.439 109.279 341.281 101.398 343.586 94.1076C348.67 106.464 352.832 119.589 356.056 133.245C348.079 132.61 339.438 131.115 330.411 128.827ZM349.218 72.314C360.714 83.6247 370.977 95.9741 379.935 109.09C369.877 100.693 358.698 92.3584 346.473 84.2344C347.6 80.015 348.515 76.0381 349.218 72.3125V72.314ZM350.46 52.515C350.469 52.6354 350.476 52.7603 350.483 52.8822C350.506 53.2571 350.525 53.6379 350.539 54.0248C350.545 54.1708 350.549 54.3153 350.554 54.4628C350.567 54.9535 350.576 55.4488 350.578 55.9575C350.578 55.9711 350.578 55.9846 350.578 55.9982C350.578 57.4839 350.519 59.0464 350.403 60.6796C339.477 54.1256 327.68 48.3769 315.07 43.5615C328.012 44.6649 339.798 47.2946 350.355 51.2701C350.396 51.678 350.432 52.092 350.462 52.5134L350.46 52.515ZM257.309 38.6016C246.483 34.5478 235.774 31.0571 225.323 28.1639C226.372 28.1504 227.42 28.1383 228.469 28.1383C240.471 28.1383 252.524 29.0054 264.515 30.7741C262.165 33.1509 259.761 35.7611 257.307 38.6016H257.309ZM257.042 38.9087C254.152 42.2685 251.194 45.9489 248.18 49.9379C237.468 52.7979 226.716 56.4528 216.037 60.8317C215.497 60.1829 214.966 59.5356 214.451 58.8913C206.09 48.4191 201.157 38.3969 200.089 29.749C207.991 28.8518 215.956 28.3265 223.951 28.1835C234.749 31.1293 245.833 34.7164 257.042 38.9102V38.9087ZM247.807 50.4316C242.234 57.8407 236.466 66.3094 230.563 75.7927C225.123 70.8855 220.351 65.9707 216.291 61.1387C226.764 56.8502 237.305 53.2586 247.807 50.4316ZM230.359 76.1224C223.402 87.3232 216.261 99.933 209.036 113.886C206.68 113.003 204.328 112.144 201.983 111.308C197.237 109.618 192.518 108.022 187.829 106.525C186.089 105.969 184.354 105.426 182.622 104.896C179.55 103.957 176.494 103.061 173.456 102.209C172.009 101.803 170.566 101.405 169.126 101.018C168.591 100.874 168.055 100.731 167.521 100.589C165.47 100.047 163.427 99.5236 161.396 99.0223C161.372 99.0163 161.349 99.0103 161.325 99.0042C158.707 98.3585 156.107 97.7518 153.524 97.1738C153.038 97.0654 152.553 96.9571 152.069 96.8517C172.4 82.3588 194.007 70.2984 215.92 61.2893C220.021 66.183 224.849 71.1564 230.357 76.1209L230.359 76.1224ZM151.151 97.0398C141.209 104.164 131.578 111.87 122.369 120.086C121.435 118.966 120.518 117.849 119.629 116.735C115.15 111.125 111.249 105.591 107.94 100.178C109.365 97.1482 110.838 94.1467 112.37 91.1858C124.593 92.1371 137.604 94.106 151.151 97.0398ZM119.331 116.973C120.225 118.093 121.146 119.216 122.085 120.34C110.159 131.002 98.946 142.518 88.6924 154.731C93.3716 135.977 99.7133 117.757 107.748 100.592C111.038 105.951 114.903 111.426 119.331 116.973ZM122.328 120.634C136.911 138.039 156.872 156.044 181.51 173.268C175.572 187.559 170.003 202.041 164.874 216.477C164.489 217.094 164.107 217.714 163.722 218.333C134.261 207.344 105.676 200.533 80.8401 198.588C82.453 184.101 85.0002 169.69 88.4818 155.573C98.8557 143.154 110.224 131.454 122.328 120.632V120.634ZM187.56 347.544C170.959 336.536 153.158 327.587 135.854 321.087C138.137 309.492 140.925 297.354 144.172 284.853C166.021 298.393 188.698 310.152 211.263 319.91C203.277 329.721 195.339 338.98 187.56 347.544ZM106.788 364.874C104.253 359.88 101.883 354.725 99.6862 349.427C102.993 338.9 107.435 327.126 113.011 314.245C120.282 316.104 127.8 318.481 135.418 321.331C131.327 342.183 128.873 361.278 128.368 377.538C121.098 373.542 113.891 369.316 106.788 364.873V364.874ZM128.357 377.967C128.3 379.913 128.268 381.824 128.268 383.687C128.268 389.224 128.524 394.379 129.043 399.115C120.718 389.093 113.406 377.805 107.122 365.53C114.113 369.891 121.206 374.04 128.359 377.967H128.357ZM78.7322 235.841C93.5416 249.467 110.954 263.087 130.731 276.229C123.827 289.581 117.846 302.138 112.789 313.797C103.678 311.485 94.9529 309.979 86.9005 309.347C81.475 286.229 78.7262 261.601 78.7277 236.612C78.7277 236.354 78.7322 236.097 78.7337 235.841H78.7322ZM130.907 275.891C126.913 273.235 123.019 270.562 119.221 267.872C118.505 267.365 117.794 266.857 117.083 266.349C102.849 256.149 90.0284 245.737 78.7352 235.326C78.7803 223.243 79.4619 211.08 80.7964 198.969C105.569 200.908 134.1 207.701 163.516 218.666C151.795 237.572 140.771 256.838 130.907 275.891ZM112.636 314.153C107.144 326.841 102.751 338.461 99.4605 348.873C94.3766 336.516 90.215 323.391 86.9907 309.735C94.9679 310.371 103.61 311.865 112.636 314.153ZM99.5102 349.991C101.577 354.953 103.797 359.789 106.162 364.486C103.091 362.557 100.038 360.589 97.0111 358.579C97.7528 355.82 98.5864 352.955 99.5102 349.991ZM113.164 313.892C118.206 302.268 124.168 289.75 131.05 276.443C135.274 279.244 139.538 281.978 143.832 284.644C140.577 297.171 137.782 309.332 135.493 320.953C127.904 318.117 120.413 315.746 113.164 313.892ZM144.272 284.469C149.764 263.371 156.551 241.254 164.39 218.991C194.006 230.107 224.484 245.437 252.893 264.285C242.17 279.8 231.174 294.741 220.19 308.74C217.295 312.43 214.4 316.053 211.513 319.604C188.898 309.832 166.167 298.044 144.272 284.469ZM143.934 284.258C139.664 281.606 135.426 278.889 131.228 276.103C141.104 257.026 152.143 237.733 163.883 218.801C163.934 218.821 163.984 218.839 164.035 218.858C156.205 241.091 149.424 263.181 143.935 284.258H143.934ZM164.087 218.471L164.279 218.164C164.239 218.276 164.2 218.387 164.161 218.498C164.137 218.489 164.113 218.48 164.087 218.471ZM80.4624 198.562C75.7035 198.198 71.0815 198.01 66.6205 198.01C63.8912 198.01 61.2236 198.081 58.6177 198.221C67.0448 183.553 76.9177 169.497 87.925 156.247C84.5338 170.141 82.0497 184.315 80.4639 198.562H80.4624ZM66.6205 198.391C71.0664 198.391 75.6749 198.579 80.4203 198.94C79.0978 210.945 78.4177 222.998 78.3591 234.975C68.775 226.112 60.2938 217.251 52.9876 208.523C54.7134 205.19 56.5173 201.886 58.392 198.612C61.0686 198.465 63.8115 198.389 66.6205 198.389V198.391ZM52.7243 208.207C51.6561 206.926 50.6074 205.646 49.5903 204.371C48.3957 202.875 47.2372 201.383 46.1133 199.896C49.8807 199.297 53.8287 198.877 57.9422 198.638C56.1352 201.8 54.3944 204.99 52.7258 208.207H52.7243ZM78.3545 235.492C78.3545 235.865 78.347 236.24 78.347 236.613C78.347 261.589 81.0883 286.206 86.5033 309.321C83.774 309.117 81.1154 309.004 78.5532 309.004C67.5593 309.004 58.21 310.919 51.3868 314.975C43.2847 300.508 36.6662 285.336 31.6244 269.775C34.9329 250.511 41.9035 230 52.7966 208.893C60.1554 217.672 68.6983 226.582 78.353 235.493L78.3545 235.492ZM78.5532 309.385C81.1425 309.385 83.8311 309.498 86.5935 309.708C89.8629 323.58 94.0953 336.909 99.283 349.443C98.3186 352.52 97.4489 355.493 96.6771 358.355C84.0779 349.976 72.5951 341.374 62.3069 332.712C58.4823 327.045 54.9044 321.234 51.5733 315.306C58.3093 311.296 67.5984 309.383 78.5532 309.383V309.385ZM96.5733 358.745C95.4464 362.964 94.5316 366.942 93.8289 370.668C82.3311 359.356 72.067 347.003 63.1073 333.885C73.1668 342.283 84.3472 350.619 96.5733 358.743V358.745ZM96.9088 358.967C100.08 361.07 103.278 363.128 106.496 365.142C112.747 377.44 120.025 388.763 128.315 398.83C127.597 398.349 126.878 397.867 126.166 397.378C114.639 389.446 103.955 380.591 94.1554 370.986C94.8551 367.236 95.7729 363.226 96.9088 358.966V358.967ZM129.457 399.407C128.915 394.599 128.649 389.344 128.649 383.689C128.649 381.893 128.679 380.05 128.732 378.175C134.58 381.38 140.466 384.435 146.368 387.339C140.422 392.129 134.761 396.184 129.455 399.405L129.457 399.407ZM146.746 387.526C154.332 391.248 161.945 394.721 169.535 397.927C160.21 399.302 150.986 400.015 141.939 400.013C137.89 400.013 133.879 399.866 129.908 399.577C135.197 396.344 140.833 392.297 146.746 387.526ZM128.742 377.747C129.233 361.486 131.681 342.366 135.779 321.469C153.02 327.949 170.759 336.867 187.3 347.831C172.987 363.569 159.219 376.948 146.696 387.077C140.687 384.124 134.694 381.012 128.742 377.747ZM211.624 320.069C218.992 323.248 226.346 326.212 233.655 328.955C226.453 342.862 219.335 355.433 212.4 366.601C205.311 360.239 197.107 353.896 187.881 347.757C195.673 339.176 203.624 329.899 211.624 320.068V320.069ZM234.191 328.747C243.87 310.024 252.998 290.242 261.39 270.071C285.978 287.267 305.895 305.239 320.437 322.6C311.149 330.885 301.431 338.65 291.4 345.825C273.085 341.831 253.804 336.087 234.191 328.746V328.747ZM233.831 328.613C226.546 325.88 219.216 322.928 211.874 319.762C214.742 316.235 217.614 312.638 220.489 308.975C231.48 294.969 242.481 280.018 253.21 264.496C255.881 266.27 258.502 268.057 261.071 269.85C252.669 290.052 243.528 309.866 233.833 328.613H233.831ZM253.425 264.182C261.563 252.399 269.541 240.287 277.233 228.004C272.276 241.87 266.918 255.768 261.219 269.49C258.67 267.712 256.073 265.942 253.425 264.182ZM253.108 263.972C224.667 245.104 194.161 229.758 164.515 218.631C164.748 217.969 164.983 217.308 165.217 216.645C173.192 203.863 181.479 191.259 189.939 179.009C218.38 197.876 248.886 213.222 278.532 224.35C278.299 225.012 278.064 225.673 277.829 226.335C269.855 239.118 261.568 251.722 253.108 263.97V263.972ZM278.888 224.483C278.913 224.493 278.937 224.502 278.962 224.511C278.899 224.613 278.836 224.715 278.771 224.818C278.81 224.706 278.849 224.595 278.888 224.483ZM279.015 224.124C286.845 201.889 293.626 179.798 299.116 158.719C302.283 160.686 305.435 162.688 308.564 164.73C309.654 165.44 310.74 166.155 311.823 166.875C301.946 185.953 290.907 205.247 279.167 224.181C279.116 224.161 279.066 224.143 279.015 224.124ZM312.142 167.087C313.981 168.309 315.794 169.534 317.592 170.764C320.178 172.535 322.722 174.311 325.223 176.095C339.755 186.464 352.823 197.057 364.311 207.648C364.266 219.734 363.585 231.899 362.25 244.013C337.478 242.074 308.947 235.281 279.531 224.316C291.253 205.408 302.277 186.141 312.142 167.087ZM393.759 238.368C392.707 237.051 391.624 235.729 390.518 234.405C401.336 213.474 408.302 193.121 411.674 173.975C417.99 193.693 421.771 214.028 422.837 234.339C415.846 238.538 407.241 241.404 397.367 243.017C396.202 241.472 395.001 239.923 393.76 238.368H393.759ZM390.253 234.086C382.894 225.305 374.35 216.394 364.694 207.483C364.694 207.112 364.701 206.742 364.701 206.373C364.701 181.396 361.96 156.779 356.545 133.662C359.274 133.867 361.933 133.98 364.495 133.98C375.489 133.98 384.837 132.065 391.661 128.008C399.765 142.477 406.384 157.647 411.424 173.21C408.115 192.472 401.145 212.98 390.255 234.084L390.253 234.086ZM364.495 133.599C361.906 133.599 359.217 133.484 356.455 133.275C353.185 119.404 348.953 106.075 343.767 93.5401C344.731 90.4617 345.602 87.4873 346.373 84.6257C358.97 93.0027 370.452 101.604 380.738 110.264C384.564 115.934 388.144 121.746 391.476 127.675C384.739 131.686 375.451 133.599 364.495 133.599ZM312.228 42.4958C296.882 36.8615 281.157 32.8981 265.319 30.5122C268.411 27.4203 271.403 24.7424 274.282 22.4845C287.153 27.75 299.861 34.4109 312.228 42.4973V42.4958ZM264.849 30.4414C252.748 28.6426 240.582 27.7605 228.471 27.7605C226.98 27.7605 225.489 27.7771 223.999 27.8042C215.882 25.5914 207.927 23.7429 200.198 22.2722C201.215 16.2947 204.607 11.2942 210.613 7.64235C231.608 8.97603 252.95 13.811 273.874 22.3204C270.973 24.6099 267.961 27.3195 264.851 30.4429L264.849 30.4414ZM222.659 27.8358C215.083 28.0119 207.535 28.5237 200.045 29.3742C199.928 28.319 199.866 27.2833 199.866 26.2703C199.866 25.0284 199.956 23.8197 200.135 22.647C207.458 24.0409 214.984 25.775 222.659 27.8358ZM199.667 29.4193C181.787 31.4756 164.241 35.4254 147.417 41.1275C155.818 32.3652 164.658 24.9923 173.775 19.0464C182.052 19.6892 190.748 20.8738 199.759 22.5763C199.576 23.773 199.484 25.0043 199.484 26.2703C199.484 27.2984 199.547 28.3491 199.666 29.4193H199.667ZM199.709 29.7972C200.79 38.5504 205.764 48.6238 214.152 59.1322C214.644 59.7479 215.151 60.3665 215.665 60.9852C193.66 70.0425 171.968 82.1691 151.568 96.7433C150.786 96.5732 150.008 96.4091 149.228 96.245C144.886 95.3313 140.601 94.5185 136.381 93.8065C134.467 93.4844 132.567 93.1818 130.68 92.9003C129.149 92.673 127.626 92.4562 126.112 92.256C121.499 91.6449 116.978 91.1662 112.558 90.82C122.635 71.3958 134.244 54.9881 146.847 41.719C163.854 35.8996 181.611 31.8775 199.708 29.7972H199.709ZM111.957 91.1572C110.489 94.0037 109.072 96.8833 107.7 99.793C105.823 96.6996 104.143 93.6469 102.661 90.6424C105.276 90.7312 107.931 90.8667 110.629 91.0563C111.07 91.0879 111.514 91.1226 111.956 91.1572H111.957ZM49.2894 204.609C50.3411 205.928 51.4244 207.249 52.5318 208.574C41.7109 229.508 34.7448 249.863 31.3731 269.011C25.057 249.292 21.276 228.957 20.2093 208.645C27.2025 204.444 35.8086 201.578 45.686 199.965C46.8505 201.508 48.0497 203.057 49.2894 204.611V204.609ZM94.0697 371.434C104.358 381.498 115.623 390.732 127.806 398.946C115.269 394.138 103.539 388.406 92.675 381.876C92.9202 378.667 93.3836 375.184 94.0697 371.434ZM127.976 399.42C115.033 398.317 103.246 395.687 92.6885 391.71C92.5426 390.231 92.4688 388.656 92.4688 386.985C92.4688 385.5 92.5275 383.937 92.6434 382.304C103.569 388.858 115.367 394.607 127.976 399.422V399.42ZM170.932 398.097C178.659 396.908 186.451 395.267 194.267 393.202C191.479 396.876 188.741 400.284 186.063 403.417C185.916 403.59 185.77 403.756 185.622 403.927C180.744 402.097 175.844 400.152 170.933 398.096L170.932 398.097ZM170.264 397.819C162.539 394.57 154.792 391.047 147.071 387.262C159.592 377.12 173.336 363.754 187.62 348.045C196.873 354.199 205.097 360.558 212.196 366.932C206.181 376.599 200.307 385.207 194.639 392.714C186.474 394.889 178.331 396.603 170.265 397.82L170.264 397.819ZM212.482 367.188C217.922 372.095 222.696 377.01 226.754 381.842C216.281 386.13 205.74 389.722 195.236 392.549C200.809 385.14 206.578 376.671 212.48 367.186L212.482 367.188ZM212.686 366.86C219.645 355.657 226.787 343.046 234.013 329.09C253.537 336.4 272.733 342.128 290.982 346.124C270.65 360.62 249.04 372.682 227.124 381.693C223.023 376.799 218.194 371.825 212.686 366.861V366.86ZM323.715 326.009C322.822 324.889 321.901 323.766 320.962 322.642C332.887 311.98 344.101 300.463 354.354 288.249C349.675 307.005 343.333 325.225 335.299 342.39C332.009 337.031 328.143 331.556 323.715 326.009ZM320.718 322.348C306.136 304.943 286.175 286.938 261.538 269.714C267.476 255.423 273.045 240.942 278.174 226.505C278.559 225.886 278.941 225.268 279.326 224.649C308.787 235.638 337.372 242.449 362.208 244.394C360.595 258.881 358.048 273.292 354.566 287.408C344.192 299.826 332.824 311.528 320.72 322.35L320.718 322.348ZM362.586 244.421C367.345 244.785 371.967 244.973 376.428 244.973C379.157 244.973 381.825 244.903 384.432 244.763C376.005 259.429 366.132 273.487 355.126 286.735C358.517 272.842 361.001 258.667 362.587 244.419L362.586 244.421ZM376.428 244.593C371.982 244.593 367.373 244.404 362.628 244.043C363.95 232.035 364.63 219.981 364.688 208.001C374.273 216.865 382.756 225.727 390.062 234.454C388.335 237.789 386.531 241.094 384.655 244.37C381.978 244.517 379.235 244.593 376.426 244.593H376.428ZM390.325 234.772C391.394 236.053 392.442 237.333 393.459 238.608C394.655 240.105 395.815 241.599 396.939 243.087C393.17 243.686 389.221 244.106 385.104 244.347C386.911 241.183 388.654 237.992 390.324 234.774L390.325 234.772ZM397.621 243.363C407.371 241.752 415.892 238.915 422.86 234.768C423.054 238.585 423.155 242.402 423.155 246.214C423.155 259.084 422.04 271.893 419.773 284.478C415.927 271.665 408.436 257.759 397.621 243.363ZM381.784 111.15C386.878 115.475 391.67 119.813 396.157 124.146C394.901 125.356 393.45 126.471 391.8 127.483C388.678 121.928 385.338 116.479 381.784 111.15ZM199.819 22.2015C190.979 20.5321 182.437 19.358 174.296 18.7047C181.644 13.963 189.17 10.1426 196.794 7.26753C197.398 7.26151 198.002 7.25247 198.607 7.25247C202.376 7.25247 206.161 7.36988 209.957 7.59869C204.152 11.2671 200.83 16.2767 199.819 22.2V22.2015ZM173.672 18.658C168.87 18.2877 164.208 18.0966 159.709 18.0966C146.155 18.0966 134.067 19.7975 124.012 23.3425C146.219 13.1201 170.575 7.66493 195.715 7.27656C188.243 10.1727 180.869 13.9721 173.67 18.658H173.672ZM146.072 41.984C133.601 55.223 122.119 71.5328 112.142 90.7914C108.861 90.54 105.635 90.3609 102.473 90.257C98.4058 81.9237 95.8842 73.9788 95.004 66.6105C110.846 56.4949 128.029 48.2234 146.072 41.984ZM102.042 90.2405C101.925 90.2374 101.805 90.2314 101.687 90.2284C99.778 90.1727 97.8928 90.1456 96.0301 90.1456C94.658 90.1456 93.2993 90.1607 91.9543 90.1908C79.9569 90.4602 69.0278 91.9354 59.4753 94.6931C70.1622 84.2795 81.9715 74.9648 94.6474 66.8378C95.5472 74.152 98.0447 82.0141 102.042 90.242V90.2405ZM23.1898 156.834C22.1742 153.193 21.4596 149.647 21.0548 146.209C23.751 141.003 26.6774 135.95 29.8084 131.043C27.034 139.493 24.8328 148.108 23.1898 156.834ZM24.4747 162.207C24.8734 163.349 25.3052 164.501 25.7581 165.658C25.9401 166.122 26.1282 166.589 26.3178 167.055C26.9467 168.592 27.6222 170.143 28.3459 171.705C28.6002 172.253 28.8605 172.802 29.1268 173.353C29.6233 174.385 30.1349 175.419 30.6735 176.459C30.7216 176.552 30.7728 176.647 30.8209 176.74C31.4378 177.928 32.0833 179.122 32.7543 180.323C33.3486 181.387 33.9655 182.457 34.6019 183.531C37.7239 188.802 41.3378 194.178 45.4272 199.622C35.6747 201.233 27.1513 204.07 20.1837 208.219C19.9911 204.403 19.8888 200.587 19.8888 196.776C19.8888 183.902 21.0037 171.091 23.2726 158.501C23.6412 159.726 24.0384 160.962 24.4732 162.208L24.4747 162.207ZM61.2552 331.83C56.1623 327.507 51.3717 323.17 46.8881 318.841C48.1445 317.632 49.5948 316.517 51.2438 315.505C54.3643 321.057 57.7029 326.504 61.2552 331.832V331.83ZM219.103 414.8C208.302 411.854 197.218 408.266 186.006 404.072C188.895 400.712 191.853 397.032 194.866 393.044C205.579 390.184 216.33 386.529 227.011 382.15C227.551 382.799 228.082 383.445 228.597 384.091C236.958 394.563 241.891 404.585 242.96 413.233C235.061 414.13 227.097 414.654 219.105 414.798L219.103 414.8ZM228.893 383.854C228.401 383.239 227.894 382.62 227.38 382.001C249.387 372.944 271.083 360.814 291.485 346.239C298.901 347.851 306.156 349.174 313.214 350.204C313.862 350.298 314.51 350.392 315.156 350.481C318.836 350.991 322.459 351.421 326.02 351.768C327.522 351.914 329.013 352.043 330.492 352.16C320.411 371.588 308.802 387.998 296.197 401.267C279.189 407.087 261.433 411.109 243.336 413.191C242.255 404.436 237.281 394.364 228.893 383.856V383.854ZM274.628 22.215C275.563 21.4895 276.489 20.8031 277.399 20.1678C279.516 18.6911 281.562 17.4658 283.535 16.4829C293.79 23.0249 303.61 31.6426 312.761 42.3919C300.336 34.2393 287.564 27.5227 274.626 22.215H274.628ZM277.182 19.8562C276.209 20.5351 275.219 21.2697 274.218 22.0509C253.383 13.5536 232.127 8.69454 211.206 7.30215C217.91 3.43657 227.059 1.58808 237.818 1.58958C240.459 1.58958 243.2 1.7055 246.02 1.92527C258.732 3.96343 271.236 8.70507 283.158 16.2466C281.231 17.222 279.238 18.4247 277.182 19.8577V19.8562ZM24.6823 120.939C24.6868 120.929 24.6929 120.92 24.6974 120.909C24.8869 120.516 25.081 120.126 25.2842 119.738C28.7251 113.158 34.1204 107.461 41.574 102.837C37.1296 111.501 33.3817 120.431 30.3049 129.557C26.9572 134.717 23.8443 140.047 20.9796 145.54C20.7645 143.529 20.6501 141.553 20.6516 139.62C20.6531 132.854 21.9741 126.587 24.6823 120.941V120.939ZM29.3555 295.479C29.3555 287.471 30.0626 279.154 31.4905 270.59C36.5112 285.937 43.062 300.896 51.0588 315.174C49.3767 316.202 47.8977 317.34 46.6143 318.577C40.2545 312.419 34.5191 306.278 29.4428 300.211C29.3871 298.646 29.3555 297.07 29.3555 295.48V295.479ZM134.738 403.449C137.445 405.139 140.165 406.768 142.9 408.324C143.463 408.643 144.026 408.955 144.59 409.268C151.168 412.936 157.819 416.228 164.522 419.132C165.099 419.382 165.678 419.62 166.256 419.865C166.976 420.171 167.697 420.478 168.419 420.773C167.483 421.498 166.558 422.183 165.648 422.819C163.531 424.295 161.485 425.521 159.512 426.505C149.257 419.963 139.437 411.345 130.286 400.596C131.766 401.567 133.25 402.517 134.739 403.447L134.738 403.449ZM165.864 423.133C166.838 422.454 167.828 421.72 168.828 420.94C176.109 423.91 183.441 426.434 190.792 428.522C192.108 428.897 193.426 429.255 194.743 429.601C199.21 430.774 203.68 431.795 208.15 432.648C210.025 433.006 211.899 433.327 213.773 433.63C216.106 434.006 218.437 434.339 220.766 434.629C221.712 434.747 222.659 434.859 223.603 434.963C225.288 435.148 226.971 435.308 228.653 435.448C229.716 435.537 230.78 435.615 231.842 435.686C225.137 439.551 215.989 441.4 205.228 441.398C202.588 441.398 199.848 441.282 197.028 441.063C184.315 439.025 171.812 434.283 159.888 426.741C161.816 425.766 163.809 424.563 165.864 423.13V423.133ZM243.288 420.41C243.471 419.215 243.563 417.982 243.561 416.718C243.561 415.69 243.498 414.639 243.379 413.569C261.258 411.512 278.806 407.562 295.628 401.86C287.227 410.623 278.389 417.994 269.271 423.94C260.995 423.297 252.297 422.113 243.286 420.41H243.288ZM296.972 401.005C309.445 387.765 320.927 371.454 330.906 352.192C332.472 352.312 334.028 352.421 335.567 352.507C337.252 352.601 338.917 352.672 340.571 352.726C344.639 361.061 347.161 369.009 348.041 376.378C332.2 386.495 315.014 394.765 296.972 401.005ZM341.001 352.741C341.087 352.744 341.174 352.749 341.262 352.75C343.204 352.808 345.124 352.838 347.018 352.838C360.622 352.838 372.951 351.357 383.574 348.289C372.886 358.705 361.075 368.02 348.398 376.15C347.498 368.835 344.999 360.971 341.001 352.741ZM400.853 340.535C396.152 343.368 390.819 345.679 384.934 347.485C395.02 337.515 404.085 326.557 411.914 314.686C409.527 321.603 406.752 328.404 403.574 335.059C402.697 336.895 401.79 338.721 400.851 340.535H400.853ZM417.556 296.813C417.892 295.435 418.214 294.055 418.521 292.67C418.631 292.173 418.74 291.675 418.847 291.177C419.205 289.504 419.544 287.827 419.86 286.146C419.967 286.53 420.07 286.912 420.171 287.295C420.358 288.004 420.531 288.708 420.695 289.41C420.904 290.31 421.097 291.205 421.268 292.093C421.414 292.849 421.549 293.602 421.667 294.348C421.795 295.164 421.9 295.973 421.995 296.776C419.299 301.982 416.371 307.036 413.241 311.944C414.88 306.954 416.315 301.906 417.556 296.814V296.813ZM440.087 188.841C436.762 175.723 428.848 161.174 416.813 146.096C415.895 144.946 414.949 143.791 413.983 142.637C413.643 133.254 412.314 124.32 410.041 115.927C425.651 138.011 435.898 162.856 440.087 188.841ZM413.587 142.162C408.582 136.209 402.944 130.185 396.709 124.147C400.839 120.026 402.833 114.832 402.828 108.918C402.828 108.04 402.783 107.145 402.697 106.237C405.031 109.117 407.267 112.052 409.405 115.039C411.795 123.543 413.207 132.617 413.589 142.162H413.587ZM402.619 105.536C401.653 97.3936 397.303 88.103 389.963 78.3773C390.426 78.9147 390.876 79.4415 391.312 79.9594C399.38 89.7467 405.353 101.19 409.089 113.946C407.021 111.093 404.865 108.289 402.621 105.536H402.619ZM338.32 34.9422C338.079 34.9136 337.836 34.891 337.589 34.8745C337.502 34.8685 337.414 34.8594 337.326 34.8549C336.989 34.8354 336.649 34.8233 336.3 34.8248C331.19 34.8263 324.779 36.8765 317.046 41.138C316.021 41.7025 314.972 42.3091 313.901 42.9519C312.719 32.9643 310.399 25.5628 307.085 20.633C306.266 19.4107 305.381 18.3419 304.44 17.4237C315.911 22.2798 327.462 28.173 338.611 34.9814C338.514 34.9678 338.418 34.9558 338.32 34.9437V34.9422ZM29.4638 300.824C34.4695 306.779 40.1071 312.802 46.3435 318.839C42.212 322.961 40.2184 328.154 40.2229 334.068C40.2229 334.946 40.2681 335.842 40.3538 336.749C38.0218 333.87 35.786 330.936 33.648 327.949C31.2557 319.444 29.846 310.369 29.4638 300.823V300.824ZM40.4306 337.452C41.389 345.519 45.6679 354.715 52.8883 364.344C52.3061 363.671 51.7434 363.015 51.2032 362.377C43.4051 352.735 37.6155 341.517 33.9625 329.044C36.0282 331.895 38.1858 334.699 40.4306 337.452ZM106.75 408.165C112.537 408.163 119.995 405.53 129.149 400.038C130.331 410.025 132.651 417.425 135.963 422.356C136.783 423.579 137.666 424.648 138.608 425.566C127.137 420.71 115.586 414.816 104.438 408.008C105.176 408.109 105.945 408.165 106.749 408.165H106.75ZM345.161 404.689C344.08 405.413 343.017 406.122 342.002 406.805C339.919 408.138 337.864 409.434 336.063 410.6C335.424 410.987 334.781 411.372 334.137 411.75C344.045 404.252 348.787 394.066 348.783 382.143C348.783 380.324 348.667 378.464 348.449 376.567C361.411 368.272 373.467 358.736 384.354 348.056C390.318 346.276 395.733 343.987 400.52 341.169C386.633 367.778 367.563 389.085 345.163 404.687L345.161 404.689ZM317.405 22.2376C319.363 23.2672 322.026 24.5181 323.974 25.5387C325.957 26.5774 328.583 28.0059 330.527 29.1138C333.7 30.9216 337.618 33.3557 341.054 35.5323C340.867 35.4706 340.679 35.4104 340.487 35.3562C340.434 35.3411 340.378 35.3306 340.324 35.3155C340.097 35.2553 339.865 35.1981 339.631 35.15C327.895 27.9246 315.699 21.7153 303.61 16.6575C303.171 16.2827 302.719 15.941 302.256 15.6279C302.829 15.8522 303.381 16.072 303.888 16.2797C307.984 17.9521 313.372 20.3786 317.392 22.2316C317.396 22.2331 317.401 22.2361 317.404 22.2376H317.405ZM83.61 394.275C87.5264 397.262 91.6834 400.223 96.0707 403.137C96.2874 403.43 96.5116 403.715 96.7463 403.983C93.3219 401.611 89.4732 398.85 86.3994 396.484C85.3071 395.62 84.3999 394.903 83.61 394.274V394.275Z" fill="url(#paint0_linear_54_5670)"/>
<defs>
<linearGradient id="paint0_linear_54_5670" x1="221.5" y1="0" x2="221.5" y2="443" gradientUnits="userSpaceOnUse">
<stop stop-color="#FF5968"/>
<stop offset="1" stop-color="white" stop-opacity="0.5"/>
</linearGradient>
</defs>
</svg>
