<svg width="60" height="60" viewBox="0 0 60 60" fill="none" xmlns="http://www.w3.org/2000/svg">
<path d="M30 0C13.4576 0 0 13.4575 0 30.0001C0 46.5426 13.4575 60 30 60C46.5425 60 60 46.5425 60 29.9999C60 13.4574 46.5424 0 30 0ZM23.6371 2.18921C20.4059 4.50136 17.6664 8.52283 15.7814 13.6097C13.7854 13.5277 12.2458 15.2545 12.4917 17.1921C7.82049 18.9657 4.15609 21.4243 2.03706 24.2926C4.26725 13.3464 12.7843 4.67126 23.6371 2.18921ZM12.9718 18.5093C13.2527 18.9425 13.6274 19.2996 14.0723 19.5513C13.4343 22.5894 13.0654 25.8616 13.0186 29.2684H1.51022C1.95509 24.8723 6.36293 20.9912 12.9718 18.5093ZM13.0185 30.7317C13.0594 33.9454 13.3932 37.0303 13.9667 39.922C13.4107 40.2673 12.9658 40.7766 12.7141 41.3854C6.24569 38.9034 1.94913 35.0751 1.5101 30.7317H13.0185ZM2.03706 35.7132C4.15609 38.5757 7.81465 41.0283 12.4741 42.8079C12.5678 44.4469 13.9083 45.7523 15.5648 45.7933C17.4556 51.167 20.2771 55.4109 23.6371 57.8109C12.7843 55.3289 4.26725 46.6536 2.03706 35.7132ZM29.2682 58.5016C24.117 58.0625 19.6215 52.9874 16.9756 45.5064C17.4556 45.284 17.8712 44.9386 18.1872 44.5172C21.6057 45.2957 25.3463 45.7407 29.2682 45.7875V58.5016ZM29.2682 44.324C25.5512 44.2771 22.0097 43.8733 18.7727 43.1766C19.1474 41.0928 17.4323 39.2605 15.3542 39.4537C14.8274 36.7084 14.523 33.7816 14.4761 30.7318H29.2684L29.2682 44.324ZM29.2682 29.2683H14.482C14.523 26.0019 14.8684 22.8702 15.4654 19.961C17.321 20.0605 18.8137 18.5913 18.8254 16.8176C22.0449 16.1269 25.5687 15.723 29.2682 15.6762V29.2683ZM29.2682 14.2126C25.4634 14.2653 21.84 14.6868 18.5093 15.4126C18.2165 14.8098 17.7425 14.3063 17.157 13.9902C19.8263 6.78434 24.2341 1.9433 29.2682 1.51022V14.2126ZM57.9629 24.2868C55.4927 20.9503 50.9327 18.158 45.1259 16.3668C43.2762 9.98052 40.162 4.91121 36.3747 2.18921C47.2214 4.6771 55.7326 13.3522 57.9629 24.2868ZM58.5015 29.2683H49.358C49.0713 28.0683 48.1112 27.1318 46.8936 26.8858C46.7122 23.7541 46.2556 20.7688 45.5648 17.9942C52.9873 20.4351 58.0273 24.5502 58.5015 29.2683ZM30.7316 1.49855C36.199 1.96689 40.9287 7.65073 43.4926 15.8986C39.6351 14.8742 35.3092 14.2712 30.7316 14.2127V1.49855ZM30.7316 15.6762C35.5258 15.7405 40.0272 16.3961 43.955 17.5025C44.7278 20.4059 45.237 23.5845 45.4359 26.9327C44.3121 27.2371 43.4399 28.1327 43.1706 29.2683H30.7316V15.6762ZM30.7316 30.7317H43.1706C43.4399 31.8673 44.3121 32.7688 45.4359 33.0732C45.237 36.4215 44.7276 39.5942 43.955 42.4975C40.0272 43.6097 35.5257 44.2654 30.7316 44.3238V30.7317ZM30.7316 45.7874C35.3092 45.7288 39.6351 45.1317 43.4868 44.1074C42.837 46.1971 42.0469 48.1288 41.1395 49.8498C40.7356 49.6625 40.2849 49.5513 39.8049 49.5513C37.001 49.5513 35.5786 52.9406 37.5278 54.9483C35.4965 57.0264 33.1902 58.2908 30.7316 58.5014V45.7874ZM36.3511 57.8166C37.1765 57.2255 37.9726 56.523 38.7277 55.721C40.8116 56.4761 42.9892 54.919 42.9892 52.7356C42.9892 51.9747 42.7199 51.2722 42.2692 50.7219C43.4048 48.6262 44.3706 46.238 45.1258 43.6332C50.9326 41.8419 55.4926 39.0556 57.9628 35.7132C55.7268 46.6596 47.2097 55.3347 36.3511 57.8166ZM45.5648 42.0058C46.2556 39.237 46.7122 36.2517 46.8995 33.12C48.1111 32.8742 49.0711 31.9317 49.358 30.7317H58.5015C58.0273 35.4498 52.9873 39.5707 45.5648 42.0058Z" fill="#FF5968"/>
</svg>
