<svg width="64" height="60" viewBox="0 0 64 60" fill="none" xmlns="http://www.w3.org/2000/svg">
<path d="M35.5938 32.8506L35.584 32.793C35.4277 31.8064 35.0843 30.964 34.4785 30.3662C33.858 29.7541 33.0458 29.4795 32.127 29.4795H31.6182C30.7667 29.4795 30.0088 29.7728 29.3818 30.3467C28.7713 30.9056 28.3169 31.7001 27.9814 32.6631L27.917 32.8477L27.9512 33.04C28.1485 34.1647 28.5243 35.1081 29.1484 35.7773C29.7944 36.47 30.6428 36.8008 31.6182 36.8008H32.1846L32.2412 36.792C33.2361 36.6385 34.0857 36.3014 34.6904 35.7051C35.3123 35.0917 35.5938 34.2847 35.5938 33.3701V32.8506ZM29.6943 21.9697L29.4824 21.751C28.4387 20.6798 27.6382 19.8279 27.0771 19.1924C26.7962 18.8742 26.5805 18.6166 26.4268 18.417C26.3868 18.3651 26.3542 18.317 26.3242 18.2754C28.1571 12.3137 29.5912 7.83706 30.6289 4.84082C31.158 3.3132 31.5794 2.18403 31.8945 1.44238C31.9001 1.42923 31.9056 1.41618 31.9111 1.40332C31.9189 1.42054 31.9286 1.43728 31.9365 1.45508C32.2658 2.19025 32.6931 3.31455 33.2217 4.84082C34.2641 7.85085 35.6739 12.3595 37.4531 18.373L34.2949 21.7637L34.0938 21.9795V25.6621H34.8438C35.1685 25.6622 35.6576 25.8231 36.3398 26.3086C37.0101 26.7855 37.7946 27.5241 38.6943 28.5479L38.918 28.8027H39.2578C40.4467 28.8026 41.4999 28.221 42.4092 27.2305C43.2296 26.3366 43.9663 25.0747 44.6387 23.4854H44.6475C47.1673 23.4854 53.2359 23.5637 62.8604 23.7217C62.686 23.8638 62.477 24.0322 62.2285 24.2227C61.5107 24.7727 60.5 25.5104 59.1943 26.4365C56.6178 28.2641 52.9097 30.8134 48.0674 34.0859H47.9141C47.8727 34.0714 47.8097 34.0474 47.7217 34.0098C47.528 33.927 47.2519 33.7983 46.8887 33.6191C46.1642 33.2618 45.126 32.7219 43.7705 31.9971L43.5498 31.8789L43.3018 31.917C42.3474 32.0646 41.5355 32.319 40.9453 32.7373C40.3313 33.1727 39.9659 33.7851 39.9512 34.5371C39.9052 35.1663 39.5042 36.2511 38.6035 37.8613L38.4492 38.1357L38.5381 38.4385C38.8959 39.6574 39.775 40.5304 41.0371 41.0811C42.1668 41.5739 43.6239 41.8181 45.3691 41.8574C46.339 44.3291 48.1397 50.0002 50.7803 58.9189C46.0165 55.5744 42.3861 52.9979 39.8887 51.1865C38.5819 50.2387 37.5894 49.5034 36.9082 48.9795C36.5672 48.7172 36.31 48.5129 36.1328 48.3633L36.1309 48.3613C36.5552 46.4016 36.7822 44.8696 36.7822 43.7959V43.5703L36.6572 43.3818L35.2139 41.2051L34.9561 40.8164L34.4932 40.875C33.1683 41.0444 32.2109 41.19 31.6553 41.3057C31.1486 41.1609 30.3469 41.0194 29.3008 40.876L28.4492 40.7598V41.4863C28.4036 41.5685 28.3261 41.6932 28.208 41.8662C27.9728 42.211 27.6119 42.6998 27.1201 43.3379L26.9268 43.5889L26.9717 43.9014L27.6289 48.5215C22.7292 52.1001 18.9704 54.7919 16.3486 56.5977C15.0044 57.5235 13.9669 58.2119 13.2314 58.666C13.1255 58.7314 13.0253 58.789 12.9336 58.8438C14.492 53.8318 16.3352 48.1593 18.4629 41.8252C20.276 41.682 21.7052 41.46 22.7188 41.1406C23.2683 40.9675 23.752 40.7494 24.1113 40.459C24.433 40.1989 24.6891 39.8471 24.7539 39.4072L25.1934 38.5771L25.3916 38.2031L25.1729 37.8398C24.039 35.9574 23.5411 34.4804 23.541 33.3701V32.6201H22.791C22.8391 32.6201 22.8303 32.6263 22.7002 32.5957C22.5935 32.5706 22.4443 32.5301 22.249 32.4727C21.8594 32.3581 21.3141 32.1838 20.6104 31.9473L20.2959 31.8408L20.0059 32.0029C18.7107 32.7254 17.6894 33.2597 16.9355 33.6113C16.5581 33.7874 16.2589 33.9129 16.0332 33.9922C15.919 34.0323 15.8373 34.0532 15.7842 34.0664C15.7493 34.049 15.7046 34.0283 15.6514 33.999C15.4611 33.8946 15.1917 33.7321 14.8379 33.5068C14.1325 33.0578 13.1284 32.3821 11.8223 31.4766C9.30604 29.7321 5.69123 27.1497 0.974609 23.7285C9.80334 23.5742 15.8513 23.4949 19.123 23.4873C19.8028 24.9865 20.4819 26.1715 21.1709 27.0107C21.9126 27.9141 22.7765 28.5517 23.7666 28.5518C23.7687 28.5519 23.8011 28.5539 23.8721 28.5771C23.9467 28.6016 24.0473 28.6438 24.1758 28.7129L24.7139 29.002L25.1055 28.5342C25.9599 27.5143 26.7203 26.7813 27.3848 26.3086C28.0553 25.8315 28.568 25.6622 28.9443 25.6621H29.6943V21.9697Z" stroke="#FF5968" stroke-width="1.5"/>
</svg>
