<svg width="60" height="60" viewBox="0 0 60 60" fill="none" xmlns="http://www.w3.org/2000/svg">
<path d="M29.2451 0.75H30.7549C39.3071 0.75 47.0044 4.7099 53.8623 12.7754C53.8686 12.794 53.873 12.811 53.8779 12.8242C53.914 12.9218 53.9623 13.028 54.0156 13.1377C54.1233 13.359 54.2779 13.6423 54.4736 13.9805C54.8607 14.6491 55.4326 15.5756 56.1865 16.7549C58.2515 21.5028 59.25 25.3763 59.25 28.4053V31.5938C59.25 36.8341 57.1564 42.4224 52.8652 48.3721C46.4829 55.6453 38.8314 59.25 29.874 59.25C19.7444 59.2499 11.547 54.6971 5.23828 45.4834C2.24204 40.7107 0.75 35.5952 0.75 30.126C0.750007 19.3514 5.76548 10.7314 15.9287 4.22461C20.9097 1.8913 25.344 0.75 29.2451 0.75ZM34.1123 21.7812C33.9595 21.7812 33.7464 21.8132 33.5508 21.9482C32.5492 21.8397 31.753 21.7813 31.1748 21.7812C25.4985 21.7812 20.7794 22.1324 17.0312 22.8438C13.2981 23.5522 10.4518 24.6311 8.58984 26.1445L8.51855 26.2031L8.46289 26.2773L7.83301 27.1162L7.68359 27.3164V30.126C7.68359 31.2946 8.16693 32.5343 9.0127 33.8213C9.8626 35.1146 11.1166 36.5141 12.75 38.0195L12.7852 38.0518L12.8232 38.0791C17.9062 41.6981 23.6827 43.5059 30.126 43.5059C35.9896 43.5058 41.6653 41.764 47.1416 38.3125L47.1973 38.2773L47.2461 38.2334C50.6874 35.1073 52.5263 31.8303 52.5264 28.4053C52.5264 27.3889 51.9999 26.5262 51.1494 25.8232C50.3113 25.1306 49.1084 24.5457 47.5967 24.043C44.567 23.0354 40.0796 22.289 34.1758 21.7842L34.1445 21.7812H34.1123ZM16.4062 28.9463C16.9444 28.9464 17.8109 29.1496 19.0576 29.6387C20.2724 30.1152 21.7812 30.8354 23.5889 31.8057C24.1838 32.2702 24.6113 32.6377 24.8857 32.9121C24.976 33.0023 25.0406 33.0768 25.0879 33.1338C24.9301 33.3198 24.6575 33.508 24.1924 33.6631C23.5662 33.8718 22.6744 33.9912 21.4834 33.9912C18.5704 33.9912 16.2648 32.5047 14.5488 29.3096L14.5371 29.2871L14.5234 29.2656C14.4891 29.2108 14.4549 29.1256 14.4385 28.9932C14.4446 28.9887 14.451 28.9833 14.458 28.9785C14.4738 28.9676 14.4927 28.9583 14.5117 28.9463H16.4062ZM45.5498 28.9463C44.8684 30.651 43.941 31.886 42.792 32.7041C41.6113 33.5448 40.1396 33.986 38.334 33.9902C37.036 33.8934 36.119 33.746 35.5439 33.5645C35.2918 33.4849 35.1468 33.4102 35.0713 33.3594V32.8525C35.0713 32.906 35.0502 32.7937 35.3691 32.501C35.6631 32.2313 36.1411 31.9058 36.8379 31.5303C38.2066 30.7927 40.2846 29.9317 43.0947 28.9463H45.5498Z" stroke="#FF5968" stroke-width="1.5"/>
</svg>
